<svg width="0" height="0" class="hidden">
  <symbol xmlns="http://www.w3.org/2000/svg" viewBox="0 0 30 30" id="1">
    <defs>
      <clipPath id="a">
        <path transform="translate(222 1022)" d="M0 0h30v30H0z"></path>
      </clipPath>
    </defs>
    <g transform="translate(-222 -1022)" clip-path="url(#a)">
      <path d="M247.951 1027.794H226.05a3.019 3.019 0 0 0-3.03 3.006v14.846a3.007 3.007 0 0 0 3.03 2.993h3.207l-2.249 2.508a.513.513 0 0 0 .036.719.507.507 0 0 0 .335.134.517.517 0 0 0 .374-.179l2.861-3.182h12.862l2.768 3.148a.511.511 0 0 0 .378.178.5.5 0 0 0 .334-.123.52.52 0 0 0 .044-.724l-2.179-2.479h3.13a3.007 3.007 0 0 0 3.03-2.993V1030.8a3.018 3.018 0 0 0-3.03-3.006zm2.022 17.885a2.015 2.015 0 0 1-2.015 2.015h-21.915a2.015 2.015 0 0 1-2.015-2.015v-14.862a2.015 2.015 0 0 1 2.015-2.017h21.915a2.015 2.015 0 0 1 2.015 2.015zm-21.965-19.779h17.984a.504.504 0 1 0 0-1.008h-17.984a.504.504 0 0 0 0 1.008zm5.156-2.892h7.673a.504.504 0 1 0 0-1.008h-7.673a.504.504 0 1 0 0 1.008zm0 0"></path>
      <path d="M237 1032.563a5.621 5.621 0 1 0 5.621 5.621 5.621 5.621 0 0 0-5.621-5.621zm0 10.235a4.614 4.614 0 1 1 4.614-4.614A4.614 4.614 0 0 1 237 1042.8zm0 0"></path>
      <path d="M238.992 1038.122h-1.8v-2.5a.504.504 0 0 0-1.008 0v2.987a.543.543 0 0 0 .534.518h2.276a.504.504 0 1 0 0-1.008zm0 0"></path>
      <path d="M237 1030.9a7.285 7.285 0 1 0 7.285 7.285A7.285 7.285 0 0 0 237 1030.9zm0 13.563a6.278 6.278 0 1 1 6.278-6.278 6.278 6.278 0 0 1-6.278 6.278zm0 0"></path>
    </g>
  </symbol>
  <symbol xmlns="http://www.w3.org/2000/svg" viewBox="0 0 30 30" id="2">
    <defs>
      <clipPath id="a">
        <path transform="translate(222 1022)" d="M0 0h30v30H0z"></path>
      </clipPath>
    </defs>
    <g transform="translate(-222 -1022)" clip-path="url(#a)">
      <path d="M249.093 1036.879a.727.727 0 0 0-.726.726v12.942h-7.8v-8.124a.727.727 0 0 0-.726-.726h-5.69a.727.727 0 0 0-.726.726v6.442a.726.726 0 1 0 1.453 0v-5.715h4.237v7.4h-13.482v-17.783l11.367-9.11 11.639 9.327a.727.727 0 0 0 .909-1.134l-12.094-9.69a.726.726 0 0 0-.909 0l-12.092 9.691a.726.726 0 0 0-.272.567v18.856a.726.726 0 0 0 .726.726h24.186a.726.726 0 0 0 .726-.726v-13.669a.726.726 0 0 0-.726-.726z"></path>
    </g>
  </symbol>
  <symbol xmlns="http://www.w3.org/2000/svg" viewBox="0 0 30 30" id="3">
    <defs>
      <clipPath id="a">
        <path transform="translate(222 1022)" d="M0 0h30v30H0z"></path>
      </clipPath>
    </defs>
    <g transform="translate(-222 -1022)" clip-path="url(#a)">
      <path d="M251.121 1036.121a.879.879 0 0 0-.879.879 13.236 13.236 0 1 1-6.916-11.636l-1.1 1.1a.879.879 0 0 0 .621 1.5h4.205a.879.879 0 0 0 .879-.879v-4.206a.879.879 0 0 0-1.5-.621l-1.816 1.817a15 15 0 0 0-18.222 23.532A15 15 0 0 0 252 1037a.879.879 0 0 0-.879-.879zM246.175 1025v1.2h-1.2z"></path>
      <path d="M242.648 1036.121h-4.77v-4.769a.879.879 0 0 0-1.758 0V1037a.879.879 0 0 0 .879.879h5.648a.879.879 0 1 0 0-1.758z"></path>
    </g>
  </symbol>
  <symbol xmlns="http://www.w3.org/2000/svg" viewBox="0 0 30 30" id="4">
    <defs>
      <clipPath id="a">
        <path transform="translate(222 1022)" d="M0 0h30v30H0z"></path>
      </clipPath>
    </defs>
    <g transform="translate(-222 -1022)" clip-path="url(#a)">
      <path d="M240.357 1035.62h1.081a.439.439 0 1 0 0-.878h-1.081a.439.439 0 0 0 0 .878zm5.35 0a.439.439 0 1 0 0-.878h-2.963a.439.439 0 1 0 0 .878zm-5.35 2.079h7.743a.439.439 0 0 0 0-.878h-7.743a.439.439 0 0 0 0 .878zm0 1.554h7.743a.439.439 0 0 0 0-.878h-7.743a.439.439 0 0 0 0 .878zm0 1.553h7.743a.439.439 0 0 0 0-.878h-7.743a.439.439 0 0 0 0 .878zm0 1.535h3.735a.439.439 0 0 0 0-.878h-3.735a.439.439 0 0 0 0 .878zm0 0"></path>
      <path d="M244.433 1030.475h-1.912a7.518 7.518 0 0 0-3.8 1.026 7.58 7.58 0 0 0-7.242-5.373h-1.912a7.567 7.567 0 0 0 0 15.134h1.31v1.69a.572.572 0 0 0 .981.4l2.6-2.653a.657.657 0 0 1 .192-.136q.325-.151.634-.332a7.575 7.575 0 0 0 1.5 2.725.44.44 0 1 0 .667-.572 6.7 6.7 0 0 1-1.4-2.668 7.661 7.661 0 0 0 1.54-1.568.44.44 0 1 0-.709-.519 6.772 6.772 0 0 1-2.6 2.137 1.529 1.529 0 0 0-.45.318l-2.077 2.115v-1.021a.8.8 0 0 0-.794-.794h-1.394a6.689 6.689 0 0 1 0-13.378h1.912a6.7 6.7 0 0 1 6.689 6.693 6.622 6.622 0 0 1-.381 2.219.44.44 0 0 0 .828.293 7.5 7.5 0 0 0 .431-2.512 7.588 7.588 0 0 0-.111-1.3 6.647 6.647 0 0 1 3.586-1.046h1.913a6.689 6.689 0 0 1 0 13.378h-1.395a.8.8 0 0 0-.794.794v1.024l-2.073-2.117a1.526 1.526 0 0 0-.45-.318 6.737 6.737 0 0 1-.841-.467.439.439 0 1 0-.48.735 7.569 7.569 0 0 0 .951.528.661.661 0 0 1 .192.136l2.6 2.653a.572.572 0 0 0 .981-.4v-1.69h1.309a7.567 7.567 0 0 0 0-15.134zm0 0"></path>
      <path d="M230.272 1036.179a.675.675 0 0 0 0 1.349.675.675 0 0 0 0-1.349zm.998-2.059a2.242 2.242 0 0 0 .981-1.6c0-.823-.745-1.445-1.866-1.445-1.183 0-1.726.7-1.726 1.174a.5.5 0 0 0 .526.5c.473 0 .28-.675 1.174-.675.438 0 .788.193.788.6 0 .473-.49.744-.78.99a1.6 1.6 0 0 0-.587 1.331c0 .455.123.587.482.587.429 0 .517-.193.517-.359a1.1 1.1 0 0 1 .49-1.095zm0 0"></path>
    </g>
  </symbol>
  <symbol xmlns="http://www.w3.org/2000/svg" viewBox="0 0 30 30" id="5">
    <defs>
      <clipPath id="a">
        <path transform="translate(222 1022)" d="M0 0h30v30H0z"></path>
      </clipPath>
    </defs>
    <g transform="translate(-222 -1022)" clip-path="url(#a)">
      <path d="M237 1027.744a2.727 2.727 0 1 0-2.727-2.727 2.727 2.727 0 0 0 2.727 2.727zm0-4.091a1.364 1.364 0 1 1-1.364 1.364 1.364 1.364 0 0 1 1.364-1.364zm.991 4.534h-1.946a3.716 3.716 0 0 0-3.817 3.613v.581c0 .375.375.58.75.58h8.045c.375 0 .75-.2.75-.58v-.546a3.716 3.716 0 0 0-3.782-3.648zm-4.332 3.413a2.406 2.406 0 0 1 2.386-2.045h1.909a2.406 2.406 0 0 1 2.387 2.045zm-7.739 8.008a.682.682 0 0 0 .682-.682 10.4 10.4 0 0 1 3.887-8.114.682.682 0 0 0-.852-1.057 11.727 11.727 0 0 0-4.4 9.17.682.682 0 0 0 .683.683zm14.403 9.164l-.016.006a10.364 10.364 0 0 1-6.58 0 .682.682 0 0 0-.852.443.648.648 0 0 0 .369.838l.04.014a11.659 11.659 0 0 0 7.466 0 .716.716 0 0 0 .443-.886.682.682 0 0 0-.87-.415zm2.677-18.335a10.364 10.364 0 0 1 4.4 8.489.682.682 0 0 0 1.364 0 11.83 11.83 0 0 0-4.977-9.614.686.686 0 1 0-.787 1.125zm-16.227 16.057a2.727 2.727 0 1 0-2.727-2.727 2.727 2.727 0 0 0 2.727 2.727zm0-4.091a1.364 1.364 0 1 1-1.364 1.364 1.364 1.364 0 0 1 1.364-1.367zm.99 4.534h-1.945a3.716 3.716 0 0 0-3.818 3.612v.581c0 .375.375.58.75.58h8.05c.375 0 .75-.2.75-.58v-.545a3.716 3.716 0 0 0-3.787-3.648zm-4.332 3.41a2.406 2.406 0 0 1 2.387-2.047h1.909a2.406 2.406 0 0 1 2.386 2.045h-6.681zm21.069-6.58a2.727 2.727 0 1 0 2.727-2.727 2.727 2.727 0 0 0-2.727 2.727zm4.091 0a1.364 1.364 0 1 1-1.364-1.367 1.364 1.364 0 0 1 1.364 1.367zm-.373 3.17h-1.945a3.716 3.716 0 0 0-3.817 3.612v.581c0 .375.375.58.75.58h8.044c.375 0 .75-.2.75-.58v-.545a3.716 3.716 0 0 0-3.782-3.648zm-4.332 3.41a2.406 2.406 0 0 1 2.387-2.047h1.909a2.406 2.406 0 0 1 2.386 2.045h-6.682z"></path>
    </g>
  </symbol>
  <symbol xmlns="http://www.w3.org/2000/svg" viewBox="0 0 29.36 29.36" id="6">
    <path d="M27.849 11.418H25.1a1.055 1.055 0 0 1-.746-1.8L26.3 7.676a1.513 1.513 0 0 0 0-2.138l-2.477-2.476a1.548 1.548 0 0 0-2.138 0L19.743 5a1.054 1.054 0 0 1-1.8-.745V1.512A1.513 1.513 0 0 0 16.431 0h-3.5a1.513 1.513 0 0 0-1.512 1.512v2.746A1.054 1.054 0 0 1 9.618 5L7.676 3.062a1.548 1.548 0 0 0-2.138 0L3.062 5.538a1.513 1.513 0 0 0 0 2.138L5 9.618a1.055 1.055 0 0 1-.746 1.8H1.512A1.513 1.513 0 0 0 0 12.929v3.5a1.513 1.513 0 0 0 1.512 1.512h2.746A1.055 1.055 0 0 1 5 19.743l-1.938 1.941a1.513 1.513 0 0 0 0 2.138L5.538 26.3a1.547 1.547 0 0 0 2.138 0l1.942-1.942a1.055 1.055 0 0 1 1.8.746v2.747a1.513 1.513 0 0 0 1.512 1.512h3.5a1.513 1.513 0 0 0 1.512-1.512V25.1a1.055 1.055 0 0 1 1.8-.746l1.942 1.946a1.548 1.548 0 0 0 2.138 0l2.478-2.477a1.513 1.513 0 0 0 0-2.138l-1.942-1.942a1.055 1.055 0 0 1 .747-1.8h2.747a1.513 1.513 0 0 0 1.512-1.512v-3.5a1.513 1.513 0 0 0-1.515-1.513zm.424 5.013a.425.425 0 0 1-.424.424H25.1a2.142 2.142 0 0 0-1.515 3.657l1.942 1.942a.424.424 0 0 1 0 .6l-2.476 2.476a.424.424 0 0 1-.6 0l-1.942-1.942a2.142 2.142 0 0 0-3.654 1.512v2.747a.425.425 0 0 1-.424.424h-3.5a.425.425 0 0 1-.424-.424V25.1a2.109 2.109 0 0 0-1.322-1.979 2.167 2.167 0 0 0-.834-.169 2.112 2.112 0 0 0-1.5.633l-1.944 1.944a.424.424 0 0 1-.6 0l-2.476-2.476a.424.424 0 0 1 0-.6l1.942-1.942a2.142 2.142 0 0 0-1.515-3.656H1.512a.425.425 0 0 1-.424-.424v-3.5a.425.425 0 0 1 .424-.424h2.746a2.142 2.142 0 0 0 1.515-3.659L3.831 6.907a.424.424 0 0 1 0-.6l2.475-2.476a.424.424 0 0 1 .6 0l1.942 1.942a2.142 2.142 0 0 0 3.657-1.514V1.512a.425.425 0 0 1 .424-.424h3.5a.425.425 0 0 1 .425.424v2.746a2.142 2.142 0 0 0 3.657 1.515l1.942-1.942a.424.424 0 0 1 .6 0l2.476 2.476a.424.424 0 0 1 0 .6l-1.942 1.942a2.142 2.142 0 0 0 1.513 3.657h2.747a.424.424 0 0 1 .424.424z"></path>
    <path d="M14.68 9.787a4.893 4.893 0 1 0 4.893 4.893 4.9 4.9 0 0 0-4.893-4.893zm0 8.7a3.806 3.806 0 1 1 3.807-3.807 3.811 3.811 0 0 1-3.807 3.807z"></path>
  </symbol>
</svg>