<svg xmlns="http://www.w3.org/2000/svg" xmlns:xlink="http://www.w3.org/1999/xlink" width="57" height="57" viewBox="0 0 57 57"><defs><style>.a{fill:#01630a;}.b{clip-path:url(#a);}</style><clipPath id="a"><rect class="a" width="57" height="57" transform="translate(289 1426)"/></clipPath></defs><g class="b" transform="translate(-289 -1426)"><g transform="translate(289 1426)"><path class="a" d="M45.934,16.811h9.4a1.67,1.67,0,1,0,0-3.34H45.2a1.691,1.691,0,0,0-1.236.534L32.307,26.83h4.509Zm0,0"/><path class="a" d="M3.4,15.831A15.151,15.151,0,0,1,.674,23.392l-.065.1H20.633Zm0,0"/><path class="a" d="M13.165,5.168a20.786,20.786,0,0,1-7.805,7.88L23.918,21.3Zm0,0"/><path class="a" d="M15.141,40.189h5.01L32.307,26.83H0A15.279,15.279,0,0,0,15.141,40.189Zm0,0"/><path class="a" d="M34.008,49.85a5.037,5.037,0,0,0-.191.47H16.5a4.946,4.946,0,0,0-.3-.68l8.394-9.318-.134-.134H20.15l-6.424,7.178A5.013,5.013,0,1,0,16.5,53.66H33.817a5.025,5.025,0,1,0,2.562-6.181L29.2,40.189H35.18A15,15,0,0,0,50.042,26.83H36.816L24.593,40.323Zm0,0"/><path class="a" d="M30.17,23.49V1.67a1.67,1.67,0,1,0-3.34,0V3.96a13.267,13.267,0,0,1-10.593-.2L29.394,23.49Zm0,0"/></g></g></svg>