<svg xmlns="http://www.w3.org/2000/svg" xmlns:xlink="http://www.w3.org/1999/xlink" width="57" height="57" viewBox="0 0 57 57"><defs><style>.a{fill:#01630a;}.b{clip-path:url(#a);}</style><clipPath id="a"><rect class="a" width="57" height="57" transform="translate(288 1428)"/></clipPath></defs><g class="b" transform="translate(-288 -1428)"><g transform="translate(288 1431.041)"><path class="a" d="M49.907,36.652,57,29.559l-7.093-7.093,1.143-1.143a5.071,5.071,0,0,0-7.172-7.172l-1.143,1.143L35.642,8.2l-2.093,2.093V13.6a8.416,8.416,0,0,1,0,16.374V40.236h-6.14L26.184,41.46l9.458,9.457,7.093-7.093.985.985a5.071,5.071,0,0,0,7.172-7.172Zm0,0"/><path class="a" d="M30.205,36.893V26.861H31.6a5.071,5.071,0,1,0,0-10.143H30.205V6.688H20.174V5.072a5.071,5.071,0,1,0-10.143,0V6.688H0V16.719H1.393a5.079,5.079,0,0,1,4.971,4.07,1.716,1.716,0,0,1,0,2,5.08,5.08,0,0,1-4.971,4.07H0V36.893H10.031V35.276a5.071,5.071,0,0,1,10.143,0v1.616Zm0,0"/></g></g></svg>