<svg xmlns="http://www.w3.org/2000/svg" xmlns:xlink="http://www.w3.org/1999/xlink" width="57" height="57" viewBox="0 0 57 57"><defs><style>.a{fill:#01630a;}.b{clip-path:url(#a);}</style><clipPath id="a"><rect class="a" width="57" height="57" transform="translate(288 1425)"/></clipPath></defs><g class="b" transform="translate(-288 -1425)"><path class="a" d="M56.348,6.153A20.8,20.8,0,0,0,28.5,4.729,20.8,20.8,0,0,0,.652,6.153,2.225,2.225,0,0,0,0,7.728V42.759a2.228,2.228,0,0,0,3.8,1.574,16.37,16.37,0,0,1,23.125,0,2.227,2.227,0,0,0,3.149,0,16.37,16.37,0,0,1,23.125,0A2.228,2.228,0,0,0,57,42.759V7.728a2.225,2.225,0,0,0-.652-1.574Zm-3.8,32.025A20.856,20.856,0,0,0,28.5,39.762,20.854,20.854,0,0,0,4.453,38.179V8.684A16.348,16.348,0,0,1,26.926,9.3a2.227,2.227,0,0,0,3.149,0,16.346,16.346,0,0,1,22.473-.618ZM47.877,13.59a2.227,2.227,0,1,1-1.572,4.167,16.36,16.36,0,0,0-11.711.056,2.227,2.227,0,1,1-1.612-4.151,20.808,20.808,0,0,1,14.894-.071ZM25.51,16.543a2.226,2.226,0,0,1-2.881,1.27,16.36,16.36,0,0,0-11.711-.056A2.227,2.227,0,1,1,9.346,13.59a20.808,20.808,0,0,1,14.894.072,2.226,2.226,0,0,1,1.27,2.881ZM49.175,27.224a2.227,2.227,0,0,1-2.869,1.3,16.358,16.358,0,0,0-11.711.057,2.227,2.227,0,1,1-1.612-4.151,20.808,20.808,0,0,1,14.894-.072,2.227,2.227,0,0,1,1.3,2.869Zm-23.665.084a2.227,2.227,0,0,1-2.881,1.27,16.362,16.362,0,0,0-11.711-.057,2.227,2.227,0,1,1-1.572-4.167,20.808,20.808,0,0,1,14.894.072,2.226,2.226,0,0,1,1.27,2.881Zm0,0" transform="translate(288 1430.978)"/></g></svg>