<svg xmlns="http://www.w3.org/2000/svg" xmlns:xlink="http://www.w3.org/1999/xlink" width="57" height="57" viewBox="0 0 57 57"><defs><style>.a{fill:#01630a;}.b{opacity:0.8;clip-path:url(#a);}</style><clipPath id="a"><path class="a" d="M0,0H57V57H0Z" transform="translate(0 0)"/></clipPath></defs><g class="b"><g transform="translate(0 0)"><circle class="a" cx="2.227" cy="2.227" r="2.227" transform="translate(40.746 21.152)"/><path class="a" d="M48.094,4.453H45.2V2.227a2.227,2.227,0,1,0-4.453,0V4.453H30.615V2.227a2.227,2.227,0,0,0-4.453,0V4.453H16.143V2.227a2.227,2.227,0,0,0-4.453,0V4.453H8.906A8.916,8.916,0,0,0,0,13.359V48.094A8.916,8.916,0,0,0,8.906,57H25.939a2.227,2.227,0,1,0,0-4.453H8.906a4.458,4.458,0,0,1-4.453-4.453V13.359A4.458,4.458,0,0,1,8.906,8.906h2.783v2.227a2.227,2.227,0,1,0,4.453,0V8.906h10.02v2.227a2.227,2.227,0,1,0,4.453,0V8.906H40.746v2.227a2.227,2.227,0,1,0,4.453,0V8.906h2.895a4.458,4.458,0,0,1,4.453,4.453V26.051a2.227,2.227,0,1,0,4.453,0V13.359A8.916,8.916,0,0,0,48.094,4.453Z"/><path class="a" d="M30.346,16.875A13.471,13.471,0,1,0,43.816,30.346,13.486,13.486,0,0,0,30.346,16.875Zm0,22.488a9.018,9.018,0,1,1,9.018-9.018A9.028,9.028,0,0,1,30.346,39.363Z" transform="translate(13.184 13.184)"/><path class="a" d="M28.643,25.189h-1V22.852a2.227,2.227,0,1,0-4.453,0v4.564a2.227,2.227,0,0,0,2.227,2.227h3.229a2.227,2.227,0,0,0,0-4.453Z" transform="translate(18.115 16.113)"/><circle class="a" cx="2.227" cy="2.227" r="2.227" transform="translate(31.061 21.152)"/><circle class="a" cx="2.227" cy="2.227" r="2.227" transform="translate(21.375 30.838)"/><circle class="a" cx="2.227" cy="2.227" r="2.227" transform="translate(11.689 21.152)"/><circle class="a" cx="2.227" cy="2.227" r="2.227" transform="translate(11.689 30.838)"/><circle class="a" cx="2.227" cy="2.227" r="2.227" transform="translate(11.689 40.523)"/><circle class="a" cx="2.227" cy="2.227" r="2.227" transform="translate(21.375 40.523)"/><circle class="a" cx="2.227" cy="2.227" r="2.227" transform="translate(21.375 21.152)"/></g></g></svg>