<svg xmlns="http://www.w3.org/2000/svg" xmlns:xlink="http://www.w3.org/1999/xlink" width="57" height="57" viewBox="0 0 57 57"><defs><style>.a{fill:#01630a;}.b{opacity:0.8;clip-path:url(#a);}</style><clipPath id="a"><path class="a" d="M0,0H57V57H0Z"/></clipPath></defs><g class="b"><path class="a" d="M16.8,21.451a2.988,2.988,0,0,0,0,5.976,2.988,2.988,0,1,0,0-5.976Z" transform="translate(10.824 16.759)"/><path class="a" d="M19.146,8.75c-5.239,0-7.645,3.1-7.645,5.2a2.225,2.225,0,0,0,2.328,2.212c2.1,0,1.242-2.988,5.2-2.988,1.94,0,3.493.854,3.493,2.639,0,2.1-2.173,3.3-3.454,4.385a7.1,7.1,0,0,0-2.6,5.9c0,2.018.543,2.6,2.134,2.6,1.9,0,2.289-.854,2.289-1.591,0-2.018.039-3.182,2.173-4.851,1.048-.815,4.346-3.454,4.346-7.1S24.113,8.75,19.146,8.75Z" transform="translate(8.985 6.836)"/><path class="a" d="M28.5,0A28.485,28.485,0,0,0,0,28.5V54.773A2.227,2.227,0,0,0,2.227,57H28.5a28.5,28.5,0,0,0,0-57Zm0,52.547H4.453V28.5A24.047,24.047,0,1,1,28.5,52.547Z"/></g></svg>