<svg xmlns="http://www.w3.org/2000/svg" xmlns:xlink="http://www.w3.org/1999/xlink" width="57" height="57" viewBox="0 0 57 57"><defs><style>.a{fill:#01630a;}.b{opacity:0.8;clip-path:url(#a);}</style><clipPath id="a"><path class="a" d="M0,0H57V57H0Z"/></clipPath></defs><g class="b"><g transform="translate(0.006)"><path class="a" d="M49.273,27.26H27.061V5.049a1.609,1.609,0,0,0-1.616-1.616A25.442,25.442,0,1,0,50.888,28.876,1.624,1.624,0,0,0,49.273,27.26ZM25.446,51.087A22.211,22.211,0,0,1,23.83,6.724V28.875a1.609,1.609,0,0,0,1.616,1.616H47.6A22.233,22.233,0,0,1,25.446,51.087Z" transform="translate(-0.003 2.682)"/><path class="a" d="M43.864,25.359A25.438,25.438,0,0,0,18.422,0a1.609,1.609,0,0,0-1.616,1.616V25.442a1.609,1.609,0,0,0,1.616,1.616H42.249a1.609,1.609,0,0,0,1.616-1.616Zm-23.827-1.52V3.3A22.226,22.226,0,0,1,40.573,23.839H20.037Z" transform="translate(13.124)"/></g></g></svg>