<svg xmlns="http://www.w3.org/2000/svg" xmlns:xlink="http://www.w3.org/1999/xlink" width="57" height="57" viewBox="0 0 57 57"><defs><style>.a{fill:#01630a;}.b{opacity:0.8;clip-path:url(#a);}</style><clipPath id="a"><path class="a" d="M0,0H57V57H0Z" transform="translate(322 1403)"/></clipPath></defs><g class="b" transform="translate(-322 -1403)"><g transform="translate(322 1403.207)"><path class="a" d="M20.679,29.176c-.47.117-.949.221-1.425.309a2.292,2.292,0,0,0,.835,4.506c.566-.105,1.137-.229,1.7-.369a2.291,2.291,0,0,0-1.107-4.447Z" transform="translate(13.578 22.534)"/><path class="a" d="M29.037,13.883a2.291,2.291,0,0,0,4.351-1.441c-.181-.547-.382-1.1-.6-1.631a2.291,2.291,0,1,0-4.255,1.7C28.717,12.962,28.885,13.423,29.037,13.883Z" transform="translate(22.166 7.113)"/><path class="a" d="M24.46,27.476c-.4.267-.821.525-1.242.767a2.291,2.291,0,1,0,2.29,3.97c.5-.288,1-.595,1.478-.913a2.291,2.291,0,0,0-2.526-3.824Z" transform="translate(17.243 20.962)"/><path class="a" d="M34,16.462a2.291,2.291,0,1,0-4.579.18c.019.483.024.974.013,1.457a2.291,2.291,0,1,0,4.581.1C34.025,17.623,34.02,17.039,34,16.462Z" transform="translate(22.981 10.934)"/><path class="a" d="M30.582,24.127a2.29,2.29,0,0,0-3.209.458c-.291.388-.6.771-.911,1.139a2.292,2.292,0,0,0,.259,3.23c.055.047.11.089.168.13a2.291,2.291,0,0,0,3.062-.389c.375-.44.74-.9,1.087-1.36A2.292,2.292,0,0,0,30.582,24.127Z" transform="translate(20.247 18.284)"/><path class="a" d="M31.962,19.322a2.291,2.291,0,0,0-2.872,1.5c-.145.461-.305.925-.479,1.379a2.291,2.291,0,0,0,4.282,1.632c.206-.54.4-1.091.569-1.64A2.292,2.292,0,0,0,31.962,19.322Z" transform="translate(22.235 14.806)"/><path class="a" d="M24.26,52.156a23.661,23.661,0,0,1-5.877-1.868c-.022-.012-.042-.025-.065-.035-.439-.207-.878-.428-1.3-.659l-.006,0a24.444,24.444,0,0,1-2.28-1.425A23.911,23.911,0,0,1,14.829,9l.082-.057a23.952,23.952,0,0,1,26.845-.215l-1.79,2.587c-.5.72-.192,1.245.68,1.166l7.776-.7a1.281,1.281,0,0,0,1.159-1.676L47.493,2.583c-.234-.843-.832-.944-1.331-.225L44.368,4.951A28.3,28.3,0,0,0,23.632.542q-1.1.19-2.17.463l-.014,0c-.028.007-.056.016-.082.023A28.255,28.255,0,0,0,5.7,11.532c-.033.039-.067.077-.1.12-.13.175-.259.354-.385.533-.207.294-.41.595-.605.9-.024.036-.043.073-.064.11A28.25,28.25,0,0,0,.029,29.853c0,.019,0,.039,0,.059.026.575.071,1.158.133,1.731,0,.037.012.072.018.109.064.577.144,1.155.245,1.733A28.279,28.279,0,0,0,8.4,48.821l.03.03.011.009a28.872,28.872,0,0,0,3.65,3.051,28.253,28.253,0,0,0,11.362,4.755,2.291,2.291,0,0,0,.809-4.511Z" transform="translate(0 -0.116)"/><path class="a" d="M16.024,5.723a1.855,1.855,0,0,0-1.855,1.854V26.048L31.062,34.78a1.854,1.854,0,0,0,1.7-3.293l-14.888-7.7V7.577A1.854,1.854,0,0,0,16.024,5.723Z" transform="translate(11.07 4.264)"/></g></g></svg>