<svg xmlns="http://www.w3.org/2000/svg" xmlns:xlink="http://www.w3.org/1999/xlink" width="32" height="32" viewBox="0 0 32 32"><defs><style>.a{fill:#01630a;}.b{clip-path:url(#a);}</style><clipPath id="a"><rect class="a" width="32" height="32" transform="translate(1060 878)"/></clipPath></defs><g class="b" transform="translate(-1060 -878)"><g transform="translate(1060 878)"><path class="a" d="M16,0A16,16,0,1,0,32,16,16.018,16.018,0,0,0,16,0Zm0,30.031A14.031,14.031,0,1,1,30.031,16,14.047,14.047,0,0,1,16,30.031Z"/><circle class="a" cx="1.647" cy="1.647" r="1.647" transform="translate(14.608 7.973)"/><path class="a" d="M15.821,13.953a.985.985,0,0,0-.985.985v8.369a.985.985,0,1,0,1.969,0V14.938A.985.985,0,0,0,15.821,13.953Z"/></g></g></svg>