<svg xmlns="http://www.w3.org/2000/svg" xmlns:xlink="http://www.w3.org/1999/xlink" width="57" height="57" viewBox="0 0 57 57"><defs><style>.a,.c{fill:#33823a;stroke:#707070;}.b{clip-path:url(#a);}.c{stroke-width:0.119px;}</style><clipPath id="a"><rect class="a" width="57" height="57" transform="translate(288 1428)"/></clipPath></defs><g class="b" transform="translate(-288 -1428)"><g transform="translate(288 1428)"><path class="c" d="M28.5,0a5.7,5.7,0,1,0,5.7,5.7A5.7,5.7,0,0,0,28.5,0Zm0,9.5a3.8,3.8,0,1,1,3.8-3.8A3.8,3.8,0,0,1,28.5,9.5Z"/><path class="c" d="M32.3,12.35h-.224l-.2.1a7.573,7.573,0,0,1-6.751,0l-.2-.1H24.7a4.756,4.756,0,0,0-4.75,4.75v5.7a2.85,2.85,0,0,0,2.85,2.85H34.2a2.85,2.85,0,0,0,2.85-2.85V17.1A4.756,4.756,0,0,0,32.3,12.35ZM35.15,22.8a.95.95,0,0,1-.95.95H22.8a.95.95,0,0,1-.95-.95V17.1A2.85,2.85,0,0,1,24.5,14.258a9.507,9.507,0,0,0,8,0A2.85,2.85,0,0,1,35.15,17.1Z"/><path class="c" d="M48.45,31.35a5.7,5.7,0,1,0,5.7,5.7A5.7,5.7,0,0,0,48.45,31.35Zm0,9.5a3.8,3.8,0,1,1,3.8-3.8A3.8,3.8,0,0,1,48.45,40.85Z"/><path class="c" d="M52.25,43.7h-.224l-.2.095a7.574,7.574,0,0,1-6.751,0l-.2-.095H44.65a4.756,4.756,0,0,0-4.75,4.75v5.7A2.85,2.85,0,0,0,42.75,57h11.4A2.85,2.85,0,0,0,57,54.15v-5.7A4.756,4.756,0,0,0,52.25,43.7ZM55.1,54.15a.95.95,0,0,1-.95.95H42.75a.95.95,0,0,1-.95-.95v-5.7a2.85,2.85,0,0,1,2.648-2.842,9.507,9.507,0,0,0,8,0A2.85,2.85,0,0,1,55.1,48.45Z"/><path class="c" d="M8.55,31.35a5.7,5.7,0,1,0,5.7,5.7A5.7,5.7,0,0,0,8.55,31.35Zm0,9.5a3.8,3.8,0,1,1,3.8-3.8A3.8,3.8,0,0,1,8.55,40.85Z"/><path class="c" d="M12.35,43.7h-.224l-.2.095a7.574,7.574,0,0,1-6.751,0l-.2-.095H4.75A4.756,4.756,0,0,0,0,48.45v5.7A2.85,2.85,0,0,0,2.85,57h11.4a2.85,2.85,0,0,0,2.85-2.85v-5.7A4.756,4.756,0,0,0,12.35,43.7ZM15.2,54.15a.95.95,0,0,1-.95.95H2.85a.95.95,0,0,1-.95-.95v-5.7a2.85,2.85,0,0,1,2.648-2.842,9.507,9.507,0,0,0,8,0A2.85,2.85,0,0,1,15.2,48.45Z"/><path class="c" d="M37.925,48.245v0a.95.95,0,0,0-1.246-.5h0a21.073,21.073,0,0,1-13.55.933l.889-.261a.95.95,0,1,0-.534-1.824l-3.8,1.114c-.014,0-.025.016-.038.021a.941.941,0,0,0-.245.136.829.829,0,0,0-.095.06.92.92,0,0,0-.233.323.951.951,0,0,0-.072.392,2.929,2.929,0,0,0,.095.38c.006.013,0,.028.01.042l1.9,3.636a.951.951,0,1,0,1.685-.88l-.773-1.478a22.867,22.867,0,0,0,15.5-.844A.95.95,0,0,0,37.925,48.245Z"/><path class="c" d="M53.872,24.978a.95.95,0,0,0-1.343,0l-1.344,1.344A22.766,22.766,0,0,0,37.422,7.513a.95.95,0,0,0-.745,1.748A20.869,20.869,0,0,1,49.243,26.05l-1.072-1.072a.95.95,0,0,0-1.343,1.343l2.85,2.85a.95.95,0,0,0,1.344,0l0,0,2.85-2.85A.95.95,0,0,0,53.872,24.978Z"/><path class="c" d="M20.872,8.226a.883.883,0,0,0-.025-.164c0-.009-.01-.014-.014-.024s0-.016,0-.024a.911.911,0,0,0-.089-.131.959.959,0,0,0-.108-.157.892.892,0,0,0-.185-.126.836.836,0,0,0-.106-.077l-3.8-1.736a.95.95,0,0,0-.788,1.727l1.967.9A22.765,22.765,0,0,0,5.7,28.5a.95.95,0,0,0,1.9,0,20.868,20.868,0,0,1,10.282-18l-.687,1.435a.95.95,0,0,0,.444,1.266.935.935,0,0,0,.411.1.95.95,0,0,0,.855-.539l1.9-3.964a.043.043,0,0,1,.008-.029.914.914,0,0,0,.051-.2.984.984,0,0,0,.036-.157A.947.947,0,0,0,20.872,8.226Z"/></g></g></svg>