<svg xmlns="http://www.w3.org/2000/svg" xmlns:xlink="http://www.w3.org/1999/xlink" width="57" height="57" viewBox="0 0 57 57"><defs><style>.a,.c{fill:#33823a;}.a{stroke:#707070;}.b{clip-path:url(#a);}</style><clipPath id="a"><rect class="a" width="57" height="57" transform="translate(288 1428)"/></clipPath></defs><g class="b" transform="translate(-288 -1428)"><path class="c" d="M56.68,10.842a3.147,3.147,0,0,0-.021-2.8A2.919,2.919,0,0,0,55.6,5.315L53.018,3.193c-1.511-1.243-3.877-1.636-5.346,0Q37.66,14.335,26.781,24.572C21.4,19.547,15.957,14.59,10.551,9.626a3.72,3.72,0,0,0-5.837.88A9.872,9.872,0,0,0,.4,14.415,2.99,2.99,0,0,0,.4,17.4C3.89,23.66,10.636,29.161,16.182,34.224c-.742.664-1.479,1.335-2.236,1.985C6.474,42.627,1.433,46.7,10.785,53.278c.126.089.255.069.383.121a2.079,2.079,0,0,0,.55.174,1.532,1.532,0,0,0,.18.008,2.061,2.061,0,0,0,.576.026c5.028-.986,9.7-4.926,13.945-9.264,4.132,4.073,8.533,7.964,13.371,10.273a3.211,3.211,0,0,0,3.412-.54,3.743,3.743,0,0,0,3.523-2.14c.1-.062.166-.1.275-.166a3.814,3.814,0,0,0,.76-5.895C44.147,41.69,40.307,37.71,36.393,33.8,43.441,26.914,52.242,19.486,56.68,10.842Z" transform="translate(288 1428)"/></g></svg>