<svg xmlns="http://www.w3.org/2000/svg" xmlns:xlink="http://www.w3.org/1999/xlink" width="27" height="27" viewBox="0 0 27 27"><defs><style>.a,.c{fill:#ff460e;}.a{stroke:#707070;}.b{clip-path:url(#a);}</style><clipPath id="a"><rect class="a" width="27" height="27" transform="translate(0 322)"/></clipPath></defs><g class="b" transform="translate(0 -322)"><path class="c" d="M.382,2.253A1.344,1.344,0,0,1,.382.38a1.344,1.344,0,0,1,1.873,0L13.493,11.636,24.749.38A1.318,1.318,0,0,1,26.6,2.253L15.365,13.491,26.6,24.748a1.318,1.318,0,0,1-1.854,1.873L13.493,15.364,2.255,26.621a1.344,1.344,0,0,1-1.873,0,1.344,1.344,0,0,1,0-1.873L11.62,13.491Z" transform="translate(0.001 322)"/></g></svg>