<svg xmlns="http://www.w3.org/2000/svg" xmlns:xlink="http://www.w3.org/1999/xlink" width="70" height="70" viewBox="0 0 70 70"><defs><style>.a{clip-path:url(#a);}</style><clipPath id="a"><rect width="70" height="70" transform="translate(371 353)"/></clipPath></defs><g class="a" transform="translate(-371 -353)"><g transform="translate(371 353)"><path d="M66.4,27.222H59.847a2.514,2.514,0,0,1-1.779-4.292L62.7,18.3a3.607,3.607,0,0,0,0-5.1L56.8,7.3a3.691,3.691,0,0,0-5.1,0L47.07,11.93a2.514,2.514,0,0,1-4.292-1.777V3.6a3.608,3.608,0,0,0-3.6-3.6H30.826a3.608,3.608,0,0,0-3.6,3.6v6.549A2.514,2.514,0,0,1,22.93,11.93L18.3,7.3a3.691,3.691,0,0,0-5.1,0L7.3,13.2a3.607,3.607,0,0,0,0,5.1l4.63,4.629a2.514,2.514,0,0,1-1.779,4.292H3.6a3.608,3.608,0,0,0-3.6,3.6v8.347a3.608,3.608,0,0,0,3.6,3.6h6.549a2.514,2.514,0,0,1,1.779,4.292L7.3,51.7a3.607,3.607,0,0,0,0,5.1l5.9,5.9a3.688,3.688,0,0,0,5.1,0l4.629-4.63a2.514,2.514,0,0,1,4.292,1.779V66.4a3.608,3.608,0,0,0,3.6,3.6h8.347a3.608,3.608,0,0,0,3.6-3.6V59.847a2.514,2.514,0,0,1,4.292-1.779L51.7,62.7a3.691,3.691,0,0,0,5.1,0l5.9-5.9a3.607,3.607,0,0,0,0-5.1l-4.63-4.629a2.514,2.514,0,0,1,1.78-4.292H66.4a3.608,3.608,0,0,0,3.6-3.6V30.826A3.608,3.608,0,0,0,66.4,27.222Zm1.011,11.952A1.012,1.012,0,0,1,66.4,40.185H59.847A5.107,5.107,0,0,0,56.236,48.9l4.63,4.629a1.012,1.012,0,0,1,0,1.431l-5.9,5.9a1.012,1.012,0,0,1-1.431,0L48.9,56.236a5.107,5.107,0,0,0-8.719,3.611V66.4a1.012,1.012,0,0,1-1.011,1.011H30.826A1.012,1.012,0,0,1,29.815,66.4V59.847a5.028,5.028,0,0,0-3.153-4.719,5.166,5.166,0,0,0-1.987-.4A5.036,5.036,0,0,0,21.1,56.235l-4.629,4.63a1.012,1.012,0,0,1-1.431,0l-5.9-5.9a1.012,1.012,0,0,1,0-1.431l4.63-4.629a5.106,5.106,0,0,0-3.611-8.718H3.6a1.012,1.012,0,0,1-1.011-1.011V30.826A1.012,1.012,0,0,1,3.6,29.815h6.549A5.107,5.107,0,0,0,13.764,21.1l-4.63-4.629a1.012,1.012,0,0,1,0-1.431l5.9-5.9a1.012,1.012,0,0,1,1.431,0L21.1,13.763a5.107,5.107,0,0,0,8.719-3.61V3.6a1.012,1.012,0,0,1,1.011-1.011h8.347A1.013,1.013,0,0,1,40.185,3.6v6.549A5.107,5.107,0,0,0,48.9,13.764l4.629-4.629a1.012,1.012,0,0,1,1.431,0l5.9,5.9a1.012,1.012,0,0,1,0,1.431L56.236,21.1a5.107,5.107,0,0,0,3.611,8.719H66.4a1.01,1.01,0,0,1,1.011,1.01Z"/><path d="M42.333,30.667A11.667,11.667,0,1,0,54,42.333,11.679,11.679,0,0,0,42.333,30.667Zm0,20.741a9.074,9.074,0,1,1,9.074-9.074A9.086,9.086,0,0,1,42.333,51.407Z" transform="translate(-7.333 -7.333)"/></g></g></svg>