<svg xmlns="http://www.w3.org/2000/svg" xmlns:xlink="http://www.w3.org/1999/xlink" width="70" height="70" viewBox="0 0 70 70"><defs><style>.a{clip-path:url(#a);}</style><clipPath id="a"><rect width="70" height="70" transform="translate(371 353)"/></clipPath></defs><g class="a" transform="translate(-371 -353)"><g transform="translate(371 353)"><path d="M70,9.7a1.507,1.507,0,0,0-.153-.643,1.3,1.3,0,0,0-.3-.675L62.37,0H7.63L.448,8.379a1.276,1.276,0,0,0-.3.674A1.507,1.507,0,0,0,0,9.7v12.47H3.5V70h63V22.167H70ZM8.7,2.333H61.3l5,5.833H3.7ZM64.167,67.667H5.833v-45.5H64.167Zm3.5-47.833H2.333V10.5H67.667Z"/><path d="M55.6,35.267h-28V46.933h28ZM53.267,44.6H29.933v-7H53.267Z" transform="translate(-6.6 -8.433)"/><path d="M58,58.267H23V74.6H58Zm-2.333,14H25.333V60.6H55.667Z" transform="translate(-5.5 -13.933)"/><path d="M33.367,72.867H39.2a1.167,1.167,0,1,0,0-2.333H33.367a1.167,1.167,0,0,0,0,2.333Z" transform="translate(-7.7 -16.867)"/><path d="M41.033,66.733H53.867a1.167,1.167,0,1,0,0-2.333H41.033a1.167,1.167,0,1,0,0,2.333Z" transform="translate(-9.533 -15.4)"/><path d="M33.367,66.738A1.171,1.171,0,1,0,32.2,65.571a1.155,1.155,0,0,0,1.167,1.167Z" transform="translate(-7.7 -15.405)"/><path d="M47.872,70.876a1.167,1.167,0,1,0,1.657,0A1.222,1.222,0,0,0,47.872,70.876Z" transform="translate(-11.367 -16.871)"/><path d="M57.533,70.533H56.367a1.167,1.167,0,1,0,0,2.333h1.167a1.167,1.167,0,0,0,0-2.333Z" transform="translate(-13.2 -16.867)"/></g></g></svg>