<svg xmlns="http://www.w3.org/2000/svg" xmlns:xlink="http://www.w3.org/1999/xlink" width="70" height="70" viewBox="0 0 70 70"><defs><style>.a{clip-path:url(#a);}</style><clipPath id="a"><rect width="70" height="70" transform="translate(371 353)"/></clipPath></defs><g class="a" transform="translate(-371 -353)"><g transform="translate(371 354.875)"><g transform="translate(0 0)"><path d="M60,27.527a25,25,0,1,0-50-.062v.062A10.611,10.611,0,0,0,0,38.089v1.25A10.616,10.616,0,0,0,10.625,49.964h.563l4.438,7.063a16.716,16.716,0,0,0,14.313,7.937h.875a5,5,0,1,0,0-2.5h-.875A14.26,14.26,0,0,1,17.75,55.652l-3.625-5.687H15a2.507,2.507,0,0,0,2.5-2.5v-17.5a2.507,2.507,0,0,0-2.5-2.5H12.5a22.5,22.5,0,0,1,45,0H55a2.507,2.507,0,0,0-2.5,2.5v17.5a2.507,2.507,0,0,0,2.5,2.5h4.375A10.616,10.616,0,0,0,70,39.339v-1.25A10.611,10.611,0,0,0,60,27.527ZM35.625,61.214a2.5,2.5,0,1,1-2.5,2.5A2.507,2.507,0,0,1,35.625,61.214ZM15,29.964v17.5H10.625A8.109,8.109,0,0,1,2.5,39.339v-1.25a8.109,8.109,0,0,1,8.125-8.125Zm52.5,9.375a8.109,8.109,0,0,1-8.125,8.125H55v-17.5h4.375A8.109,8.109,0,0,1,67.5,38.089Z" transform="translate(0 -2.464)"/><path d="M58.739,14.611a5.766,5.766,0,0,1-.5-.312,5.764,5.764,0,0,0-.5-.312,1.176,1.176,0,0,0-1.687.438,1.226,1.226,0,0,0,.438,1.688,5.765,5.765,0,0,1,.5.313,2.533,2.533,0,0,0,.563.313,1.206,1.206,0,0,0,.625.188,1.16,1.16,0,0,0,1.063-.625A1.262,1.262,0,0,0,58.739,14.611Z" transform="translate(-13.364 -5.173)"/><path d="M41.587,10.679a18.1,18.1,0,0,0-13.75,6.313,1.268,1.268,0,0,0,.125,1.75,1.316,1.316,0,0,0,.812.313,1.125,1.125,0,0,0,.938-.437,15.767,15.767,0,0,1,11.875-5.438,15.516,15.516,0,0,1,3.375.375,1.326,1.326,0,0,0,1.5-.938,1.3,1.3,0,0,0-.937-1.5A16.9,16.9,0,0,0,41.587,10.679Z" transform="translate(-6.587 -4.429)"/></g></g></g></svg>