<svg xmlns="http://www.w3.org/2000/svg" xmlns:xlink="http://www.w3.org/1999/xlink" width="70" height="70" viewBox="0 0 70 70"><defs><style>.a{clip-path:url(#a);}</style><clipPath id="a"><rect width="70" height="70" transform="translate(371 353)"/></clipPath></defs><g class="a" transform="translate(-371 -353)"><g transform="translate(386.399 353)"><path d="M11.522,34.247A13.294,13.294,0,0,0,12.906,52.99c9.039,7.8,22.991.563,21.913-11.27a1.029,1.029,0,0,0-2.049.187,11.223,11.223,0,0,1-2.908,8.612A8.306,8.306,0,0,0,26.975,43.9a6.75,6.75,0,1,0-10.778,0,8.226,8.226,0,0,0-2.888,6.268v.347a11.234,11.234,0,1,1,18.5-12.243,1.029,1.029,0,1,0,1.873-.85,13.3,13.3,0,0,0-22.166-3.182Zm6.239,11.036a1.67,1.67,0,0,0,.255-2.4,4.691,4.691,0,1,1,7.14,0,1.669,1.669,0,0,0,.253,2.4,6.188,6.188,0,0,1,2.4,4.894v2.1a11.236,11.236,0,0,1-12.439,0c.158-1.047-.753-4.526,2.395-7Zm0,0" transform="translate(-1.984 -7.088)"/><path d="M34.629,75.538A1.028,1.028,0,0,0,33.6,74.509H9.794a1.029,1.029,0,0,0,0,2.057H33.6A1.028,1.028,0,0,0,34.629,75.538Zm0,0" transform="translate(-2.096 -17.817)"/><path d="M14.942,81.54a1.029,1.029,0,1,0,0,2.057H30.914a1.029,1.029,0,0,0,0-2.057Zm0,0" transform="translate(-3.327 -19.499)"/><path d="M33.6,67.419H9.794a1.029,1.029,0,0,0,0,2.058H33.6a1.029,1.029,0,0,0,0-2.058Zm0,0" transform="translate(-2.096 -16.122)"/><path d="M32.61,10.563H24.425V8.449a1.029,1.029,0,1,0-2.057,0v2.114H16.835V2.057h5.532V4.334a1.029,1.029,0,1,0,2.057,0V1.314A1.316,1.316,0,0,0,23.11,0H16.092a1.316,1.316,0,0,0-1.314,1.314v9.249H6.592A6.6,6.6,0,0,0,0,17.155V63.4a6.6,6.6,0,0,0,1.483,4.155,1.029,1.029,0,1,0,1.595-1.3A4.537,4.537,0,0,1,2.057,63.4V17.155A4.54,4.54,0,0,1,6.592,12.62H32.61a4.54,4.54,0,0,1,4.535,4.535V63.4a4.539,4.539,0,0,1-4.535,4.534c-27.525-.017-26.076.042-26.688-.049a1.028,1.028,0,1,0-.3,2.034c.877.131-.421.048,26.992.073A6.6,6.6,0,0,0,39.2,63.4V17.155a6.6,6.6,0,0,0-6.592-6.592Zm0,0" transform="translate(0 0)"/><path d="M28.411,22.01a3.863,3.863,0,1,0-3.863,3.863A3.868,3.868,0,0,0,28.411,22.01Zm-5.669,0a1.806,1.806,0,1,1,1.806,1.806A1.808,1.808,0,0,1,22.741,22.01Zm0,0" transform="translate(-4.946 -4.339)"/></g></g></svg>