<svg xmlns="http://www.w3.org/2000/svg" xmlns:xlink="http://www.w3.org/1999/xlink" width="70" height="70" viewBox="0 0 70 70"><defs><style>.a{clip-path:url(#a);}</style><clipPath id="a"><rect width="70" height="70" transform="translate(371 353)"/></clipPath></defs><g class="a" transform="translate(-371 -353)"><g transform="translate(378.583 353)"><path d="M55.633,33.733H26.467a1.167,1.167,0,1,0,0,2.333H55.633a1.167,1.167,0,0,0,0-2.333Z" transform="translate(-13.633 -8.067)"/><path d="M26.467,23.8H38.133a1.167,1.167,0,1,0,0-2.333H26.467a1.167,1.167,0,0,0,0,2.333Z" transform="translate(-13.633 -5.133)"/><path d="M55.633,46H26.467a1.167,1.167,0,1,0,0,2.333H55.633a1.167,1.167,0,0,0,0-2.333Z" transform="translate(-13.633 -11)"/><path d="M55.633,58.267H26.467a1.167,1.167,0,1,0,0,2.333H55.633a1.167,1.167,0,0,0,0-2.333Z" transform="translate(-13.633 -13.933)"/><path d="M55.633,70.533H26.467a1.167,1.167,0,0,0,0,2.333H55.633a1.167,1.167,0,0,0,0-2.333Z" transform="translate(-13.633 -16.867)"/><path d="M47.783,0H9.967V70H64.8V17.017Zm.684,3.983,12.35,12.35H48.467ZM12.3,67.667V2.333H46.133V18.667H62.467v49Z" transform="translate(-9.967)"/></g></g></svg>