<svg xmlns="http://www.w3.org/2000/svg" xmlns:xlink="http://www.w3.org/1999/xlink" width="70" height="70" viewBox="0 0 70 70"><defs><style>.a{fill:#000000;}.b{clip-path:url(#a);}</style><clipPath id="a"><rect class="a" width="70" height="70" transform="translate(371 353)"/></clipPath></defs><g class="b" transform="translate(-371 -353)"><g transform="translate(371 353)"><path class="a" d="M59.749,45.251a34.866,34.866,0,0,0-13.3-8.342,20.234,20.234,0,1,0-22.9,0A35.055,35.055,0,0,0,0,70H5.469a29.531,29.531,0,0,1,59.063,0H70A34.772,34.772,0,0,0,59.749,45.251ZM35,35A14.766,14.766,0,1,1,49.766,20.234,14.782,14.782,0,0,1,35,35Z"/></g></g></svg>