<svg xmlns="http://www.w3.org/2000/svg" width="23.217" height="23.217" viewBox="0 0 23.217 23.217"><defs><style>.a{fill:#fbbb00;}.b{fill:#518ef8;}.c{fill:#28b446;}.d{fill:#f14336;}</style></defs><g transform="translate(0 0)"><path class="a" d="M5.145,146.028l-.808,3.017-2.954.062a11.629,11.629,0,0,1-.085-10.84h0l2.63.482,1.152,2.614a6.928,6.928,0,0,0,.065,4.664Z" transform="translate(0 -131.998)"/><path class="b" d="M272.778,208.176A11.6,11.6,0,0,1,268.64,219.4h0l-3.312-.169-.469-2.926a6.919,6.919,0,0,0,2.977-3.533h-6.207v-4.592h11.15Z" transform="translate(-249.765 -198.736)"/><path class="c" d="M48,316.039h0a11.612,11.612,0,0,1-17.492-3.551l3.762-3.079a6.9,6.9,0,0,0,9.949,3.535Z" transform="translate(-29.126 -295.379)"/><path class="d" d="M46.344,2.672,42.583,5.751A6.9,6.9,0,0,0,32.406,9.366l-3.782-3.1h0a11.611,11.611,0,0,1,17.72-3.6Z" transform="translate(-27.326)"/></g></svg>