<svg xmlns="http://www.w3.org/2000/svg" width="881.695" height="347.958" viewBox="0 0 881.695 347.958"><defs><style>.a{fill:#f5f5f5;}.b{fill:#fc3;}.c{opacity:0.03;}.d{opacity:0.2;}.e{fill:#4d8af0;}.f{fill:#01630a;}.g{fill:#514530;}.h{fill:#3f3d56;}.i{fill:#f2b233;}.j{fill:#dd981d;}.k{fill:#04af76;}.l{fill:#008c61;}.m{fill:#fff6e1;}.n{fill:#ffeebd;}.o{fill:#fea832;}.p{fill:#fedb41;}.q{fill:#fe9923;}.r,.s{fill:#fec3be;}.s{stroke:#fec3be;}</style></defs><g transform="translate(383 -249.354)"><ellipse class="a" cx="440.848" cy="71.24" rx="440.848" ry="71.24" transform="translate(-383 454.832)"/><g transform="translate(-168.918 -18.242)"><g transform="translate(344.41 523.426) rotate(169)"><path class="b" d="M-.013,40.656l7.521-1.929,1.167,1.994L18.8,58.053h.27c10.022-.539,6.4-15.565,1.79-27.7a160.72,160.72,0,0,0-6.778-15.268C23.478-1.814,43.7.127,43.7.127l1.118,1.914L56.4,21.873c.24.266.487.525.733.772,10.6,10.7,28.633,7.42,41.879,2.778a111.619,111.619,0,0,0,16.621-7.4h0l-1.879,3.863-7.341,3.083-9.473,3.953L68.626,40.73c-4.423-.928-9.313.095-14.263,2.3C36.618,50.888,18,73.67,16.97,74.953l-.048.056Z" transform="translate(0 34.889)"/><path class="c" d="M-.011,15.074C9.664-1.829,30.483.112,30.483.112l1.152,1.914h.3L44.32,22.612c10.912,10.7,29.483,7.421,43.122,2.779l1.237.445a6.262,6.262,0,0,1,.9.371c.105.1-1.552,1.129-4.243,2.671-2.072,1.19-4.757,1.72-7.719,3.336l-20,9.429c-4.275-.879-9.033-.1-13.919,1.716-.718-.414-1.46.1-2.221-.39A102.1,102.1,0,0,1,25.659,30.517c-4.444-4.434-12.5-2.549-18.1-.415l-.588.234A158.417,158.417,0,0,0-.011,15.074Z" transform="translate(14.512 34.905)"/><g class="d" transform="matrix(0.985, 0.174, -0.174, 0.985, 120.804, 0.097)"><path class="e" d="M7.788,26.85a31.26,31.26,0,0,1,1.489-7.732c.559-1.495,1.336-2.951,1.741-4.469C12.277,9.846,9.8,4.286,13.919.378A4.074,4.074,0,0,0,9.692.853,4.425,4.425,0,0,0,8.247,3.967c-.438,4.119.92,8.479-1.39,12.271-1.215,2.009-3.405,3.714-4.128,5.839-.876,2.577.548,5.271.274,7.911-.219,2.149-1.555,4.158-2.277,6.229C-1.6,42.935,2.434,49.935,1.953,56.849,8.807,48.994,6.825,36.061,7.788,26.85Z" transform="translate(0 0)"/></g></g></g><g transform="translate(285.104 -150.588)"><path class="f" d="M5.963,5.476C-2.6,12.557.576,20.323.576,20.323s8.1,4.826,16.66-2.232S26.36.2,26.36.2,14.524-1.587,5.963,5.476Z" transform="matrix(0.995, 0.105, -0.105, 0.995, -224.875, 548.493)"/><path class="f" d="M5.882,6.18c-9.553,7.9-4.6,16.513-4.6,16.513s7.256,6.445,16.81-1.43S29.059.2,29.059.2,15.435-1.7,5.882,6.18Z" transform="translate(-250.254 537.525) rotate(-51)"/><path class="f" d="M5.882,6.18c-9.553,7.9-4.6,16.513-4.6,16.513s7.256,6.445,16.81-1.43S29.059.2,29.059.2,15.435-1.7,5.882,6.18Z" transform="translate(-259.726 585.448) rotate(-105)"/><path class="g" d="M114.932,345.442l-.032.108.015.594-1.309,52.5L95.857,384.6l17.67,17.2-2.271,91.091h4.887l.8-103.038,13.634-11.036-13.609,7.844Z" transform="translate(-346.743 183.714)"/><path class="h" d="M843.034,471.583c0,1.747-4.065,3.044-4.464,4.73s-133.38,2.26-133.776.589a23.738,23.738,0,0,1-.626-5.319c0-1.747,2.731-3.082,3.131-4.768s-1.614-4.073-.85-5.669c.736-1.538.642-3.9,1.7-5.359,1-1.382,3.5-1.923,4.767-3.219,1.2-1.225,3.345-1.567,4.765-2.706,1.346-1.079,1.174-4.331,2.7-5.324,1.455-.944,3.486-1.375,5.1-2.234,1.538-.822,3.714-.683,5.382-1.422,1.6-.709,4.109.688,5.821.061,1.651-.6,2.99-1.926,4.735-2.45,1.689-.507,2.483-4.372,4.253-4.8,1.719-.414,3.833.273,5.621-.061,1.742-.326,4.086,2.723,5.887,2.476,1.759-.241,3.074-4.312,4.884-4.475,1.771-.159,3.768,1.949,5.582,1.869,1.778-.079,3.564,1.157,5.379,1.157s3.621-1.7,5.4-1.617c1.814.08,3.413,2.321,5.184,2.48,1.81.162,4.031-3.246,5.79-3,1.8.247,3.193,2.882,4.935,3.208,1.788.335,4.028-1.3,5.747-.886,1.77.427,2.835,3.227,4.525,3.734,1.745.524,2.82,2.5,4.471,3.1,1.712.627,4.892-2.307,6.493-1.6,1.668.738,3.109,2.016,4.646,2.838,1.609.86,4.167.427,5.622,1.371,1.53.993,1.906,3.659,3.252,4.737,1.421,1.139,3.764,1.482,4.963,2.707,1.268,1.3,1.444,3.618,2.445,5,1.054,1.455,1.021,3.472,1.757,5.01.764,1.6,2.8,2.8,3.2,4.475S843.034,469.836,843.034,471.583Z" transform="translate(-1006.263 199.001)"/></g><g transform="translate(536.104 -150.588)"><path class="f" d="M5.963,5.476C-2.6,12.557.576,20.323.576,20.323s8.1,4.826,16.66-2.232S26.36.2,26.36.2,14.524-1.587,5.963,5.476Z" transform="translate(-180.491 533.752) rotate(-8)"/><path class="f" d="M5.963,5.476C-2.6,12.557.576,20.323.576,20.323s8.1,4.826,16.66-2.232S26.36.2,26.36.2,14.524-1.587,5.963,5.476Z" transform="matrix(0.788, -0.616, 0.616, 0.788, -211.051, 556.25)"/><path class="f" d="M5.882,6.18c-9.553,7.9-4.6,16.513-4.6,16.513s7.256,6.445,16.81-1.43S29.059.2,29.059.2,15.435-1.7,5.882,6.18Z" transform="translate(-247.254 422.525) rotate(-51)"/><path class="f" d="M5.882,6.18c-9.553,7.9-4.6,16.513-4.6,16.513s7.256,6.445,16.81-1.43S29.059.2,29.059.2,15.435-1.7,5.882,6.18Z" transform="translate(-292.415 487.237) rotate(-88)"/><path class="f" d="M5.882,6.18c-9.553,7.9-4.6,16.513-4.6,16.513s7.256,6.445,16.81-1.43S29.059.2,29.059.2,15.435-1.7,5.882,6.18Z" transform="translate(-271.494 495.445) rotate(-60)"/><path class="f" d="M5.882,6.18c-9.553,7.9-4.6,16.513-4.6,16.513s7.256,6.445,16.81-1.43S29.059.2,29.059.2,15.435-1.7,5.882,6.18Z" transform="translate(-228.075 514.823) rotate(-1)"/><g transform="translate(-312.025 491.103)"><path class="i" d="M58.6,159.9c0,5.66-5.568,5.336-12.481,5.336s-12.481.278-12.481-5.336c0-5.66,5.568-15.079,12.481-15.079C53.034,144.866,58.6,154.285,58.6,159.9Z" transform="translate(0 -136.422)"/><path class="j" d="M248.84,145.62c6.913,0,12.481,9.418,12.481,15.079s-5.568,5.336-12.481,5.336" transform="translate(-202.719 -137.175)"/><path class="i" d="M144.04,2.6c0-2.737,2.737-2.6,6.078-2.6S156.2-.138,156.2,2.6s-2.737,7.331-6.078,7.331S144.04,5.336,144.04,2.6Z" transform="translate(-103.997 0)"/><path class="j" d="M248.84,0c3.341,0,6.078-.139,6.078,2.6S252.181,9.93,248.84,9.93" transform="translate(-202.719 0)"/><path class="k" d="M167.511,137.087a.832.832,0,0,1-.835.835h-9a.832.832,0,0,1-.835-.835v-.232a.832.832,0,0,1,.835-.835h9.047a.832.832,0,0,1,.835.835v.232Z" transform="translate(-116.055 -128.132)"/><path class="l" d="M168.84,136.82h9.186a.832.832,0,0,1,.835.835v.232a.915.915,0,0,1-.928.835" transform="translate(-127.359 -128.886)"/><circle class="k" cx="5.568" cy="5.568" r="5.568" transform="translate(40.553 14.105)"/><path class="l" d="M180.84,244.655a5.577,5.577,0,0,1,7.887,7.887" transform="translate(-138.663 -228.926)"/><path class="m" d="M210.7,273.635v-1.16a3.951,3.951,0,0,1-1.856-.464l.278-1.253a3.945,3.945,0,0,0,1.763.464c.6,0,1.021-.232,1.021-.65s-.325-.65-1.16-.928c-1.16-.371-1.9-.928-1.9-1.949,0-.928.418-1.67,1.809-1.9v-.974h.928v.928a3.046,3.046,0,0,1,1.577.371l-.278,1.206a3.133,3.133,0,0,0-1.531-.371c-.7,0-.928.278-.928.6,0,.371.371.557,1.3.928,1.253.464,1.763,1.021,1.763,2s-.51,1.763-1.9,2v1.16Z" transform="translate(-165.039 -249.462)"/><g transform="translate(46.121 15.358)"><path class="n" d="M248.84,264.82v2.134h.232a3.133,3.133,0,0,1,1.531.371l.278-1.206a2.753,2.753,0,0,0-1.577-.371v-.928Z" transform="translate(-248.84 -264.82)"/><path class="n" d="M249.443,323.452c-.232-.093-.464-.186-.6-.232V324.8c.464.232.742.464.742.789,0,.371-.278.557-.742.65v2.413h.464v-1.206c1.392-.232,1.9-1.021,1.9-2S250.7,323.916,249.443,323.452Z" transform="translate(-248.84 -319.833)"/></g></g><g transform="translate(-336.025 553.103)"><path class="i" d="M58.6,159.9c0,5.66-5.568,5.336-12.481,5.336s-12.481.278-12.481-5.336c0-5.66,5.568-15.079,12.481-15.079C53.034,144.866,58.6,154.285,58.6,159.9Z" transform="translate(0 -136.422)"/><path class="j" d="M248.84,145.62c6.913,0,12.481,9.418,12.481,15.079s-5.568,5.336-12.481,5.336" transform="translate(-202.719 -137.175)"/><path class="i" d="M144.04,2.6c0-2.737,2.737-2.6,6.078-2.6S156.2-.138,156.2,2.6s-2.737,7.331-6.078,7.331S144.04,5.336,144.04,2.6Z" transform="translate(-103.997 0)"/><path class="j" d="M248.84,0c3.341,0,6.078-.139,6.078,2.6S252.181,9.93,248.84,9.93" transform="translate(-202.719 0)"/><path class="k" d="M167.511,137.087a.832.832,0,0,1-.835.835h-9a.832.832,0,0,1-.835-.835v-.232a.832.832,0,0,1,.835-.835h9.047a.832.832,0,0,1,.835.835v.232Z" transform="translate(-116.055 -128.132)"/><path class="l" d="M168.84,136.82h9.186a.832.832,0,0,1,.835.835v.232a.915.915,0,0,1-.928.835" transform="translate(-127.359 -128.886)"/><circle class="k" cx="5.568" cy="5.568" r="5.568" transform="translate(40.553 14.105)"/><path class="l" d="M180.84,244.655a5.577,5.577,0,0,1,7.887,7.887" transform="translate(-138.663 -228.926)"/><path class="m" d="M210.7,273.635v-1.16a3.951,3.951,0,0,1-1.856-.464l.278-1.253a3.945,3.945,0,0,0,1.763.464c.6,0,1.021-.232,1.021-.65s-.325-.65-1.16-.928c-1.16-.371-1.9-.928-1.9-1.949,0-.928.418-1.67,1.809-1.9v-.974h.928v.928a3.046,3.046,0,0,1,1.577.371l-.278,1.206a3.133,3.133,0,0,0-1.531-.371c-.7,0-.928.278-.928.6,0,.371.371.557,1.3.928,1.253.464,1.763,1.021,1.763,2s-.51,1.763-1.9,2v1.16Z" transform="translate(-165.039 -249.462)"/><g transform="translate(46.121 15.358)"><path class="n" d="M248.84,264.82v2.134h.232a3.133,3.133,0,0,1,1.531.371l.278-1.206a2.753,2.753,0,0,0-1.577-.371v-.928Z" transform="translate(-248.84 -264.82)"/><path class="n" d="M249.443,323.452c-.232-.093-.464-.186-.6-.232V324.8c.464.232.742.464.742.789,0,.371-.278.557-.742.65v2.413h.464v-1.206c1.392-.232,1.9-1.021,1.9-2S250.7,323.916,249.443,323.452Z" transform="translate(-248.84 -319.833)"/></g></g><path class="f" d="M5.882,6.18c-9.553,7.9-4.6,16.513-4.6,16.513s7.256,6.445,16.81-1.43S29.059.2,29.059.2,15.435-1.7,5.882,6.18Z" transform="translate(-256.915 559.685) rotate(-90)"/><path class="f" d="M5.882,6.18c-9.553,7.9-4.6,16.513-4.6,16.513s7.256,6.445,16.81-1.43S29.059.2,29.059.2,15.435-1.7,5.882,6.18Z" transform="translate(-228.075 590.823) rotate(-1)"/><path class="f" d="M5.882,6.18c-9.553,7.9-4.6,16.513-4.6,16.513s7.256,6.445,16.81-1.43S29.059.2,29.059.2,15.435-1.7,5.882,6.18Z" transform="translate(-228.075 447.823) rotate(-1)"/><path class="f" d="M5.882,6.18c-9.553,7.9-4.6,16.513-4.6,16.513s7.256,6.445,16.81-1.43S29.059.2,29.059.2,15.435-1.7,5.882,6.18Z" transform="translate(-165.45 447.236) rotate(10)"/><path class="f" d="M5.882,6.18c-9.553,7.9-4.6,16.513-4.6,16.513s7.256,6.445,16.81-1.43S29.059.2,29.059.2,15.435-1.7,5.882,6.18Z" transform="matrix(0.966, -0.259, 0.259, 0.966, -200.62, 457.757)"/><path class="f" d="M5.882,6.18c-9.553,7.9-4.6,16.513-4.6,16.513s7.256,6.445,16.81-1.43S29.059.2,29.059.2,15.435-1.7,5.882,6.18Z" transform="translate(-310.051 562.111) rotate(-97)"/><path class="f" d="M5.882,6.18c-9.553,7.9-4.6,16.513-4.6,16.513s7.256,6.445,16.81-1.43S29.059.2,29.059.2,15.435-1.7,5.882,6.18Z" transform="translate(-281.494 573.445) rotate(-60)"/><path class="g" d="M142.8,345.442l-.08.189.036,1.034-3.221,103.945L115.56,436.432,89.611,404l24.748,34.96,25.178,19.463-2.692,66.947-29.554-10.046L71.182,479.372l33.707,38.381,31.663,14.886-2.8,69.548h12.027l.95-86.867,31.427-7.277,29.7-33.454-32.6,28.548-28.417,2.436.905-82.8,41.663-8.746L222.361,393.1l-36.7,17.8-37.854,6.312Z" transform="translate(-372.105 66.674)"/><path class="h" d="M864.158,471.583c0,1.747-4.683,3.044-5.144,4.73s-153.67,2.26-154.126.589a20.76,20.76,0,0,1-.721-5.319c0-1.747,3.147-3.082,3.607-4.768s-1.859-4.073-.979-5.669c.849-1.538,9.275,2.054,10.49.6,1.154-1.382,4.325-9.017,6.088-10.01,1.676-.944,7.211,1.572,9.132.833,1.845-.709,12.564-13.551,14.575-14.075,1.946-.507,2.86-4.372,4.9-4.8,1.98-.414,4.417.273,6.477-.061,2.007-.326,19.8,4.941,21.888,4.941s7.322-5.609,9.37-5.531c2.09.08,3.932,2.321,5.973,2.48,2.085.162,11.451,10.864,13.458,11.19,2.06.335,8.787-8.646,10.733-8.139,2.011.524,3.249,2.5,5.151,3.1,1.972.627,11.063.419,12.834,1.24,1.854.86,4.8.427,6.477,1.371,1.763.993,2.2,3.659,3.747,4.737,1.637,1.139,4.336,1.482,5.718,2.707,1.461,1.3,1.664,3.618,2.817,5,1.215,1.455,1.177,3.472,2.025,5.01.88,1.6,3.23,2.8,3.686,4.475S864.158,469.836,864.158,471.583Z" transform="translate(-1018 199.001)"/></g><g transform="translate(-190.182 507.779)"><path class="o" d="M9.218,0C4.171,0,0,3.462,0,7.724s4.171,7.785,9.218,7.785,9.146-3.523,9.146-7.785S14.264,0,9.218,0Z" transform="translate(0 2)"/><path class="o" d="M266.146,7.724c0,4.262-4.1,7.785-9.146,7.785V0C262.046,0,266.146,3.462,266.146,7.724Z" transform="translate(-247.782 2)"/><path class="p" d="M9.218,0C4.171,0,0,3.462,0,7.724s4.171,7.785,9.218,7.785,9.146-3.523,9.146-7.785S14.264,0,9.218,0Z" transform="translate(0 0)"/><path class="b" d="M266.146,7.724c0,4.262-4.1,7.785-9.146,7.785V0C262.046,0,266.146,3.462,266.146,7.724Z" transform="translate(-247.782 0)"/><path class="o" d="M67.066,60C63.214,60,60,62.5,60,65.574S63.214,71.2,67.066,71.2s6.994-2.561,6.994-5.631S70.918,60,67.066,60Z" transform="translate(-57.848 -57.848)"/><path class="q" d="M263.994,65.574c0,3.07-3.142,5.631-6.994,5.631V60C260.852,60,263.994,62.5,263.994,65.574Z" transform="translate(-247.782 -57.848)"/><path class="p" d="M183.838,123.044H183.3v-1.522h.538c.3,0,.538.167.538.381,0,.5,1.076.5,1.076,0,0-.632-.721-1.142-1.614-1.142H183.3v-.381c0-.251-.269-.381-.538-.381s-.538.129-.538.381v.381h-.61c-.893,0-1.614.51-1.614,1.142v.761c0,.632.721,1.142,1.614,1.142h.61v1.573h-.61c-.3,0-.538-.167-.538-.381,0-.5-1.076-.5-1.076,0,0,.632.721,1.142,1.614,1.142h.61v.381c0,.251.269.381.538.381s.538-.129.538-.381v-.381h.538c.893,0,1.614-.51,1.614-1.142v-.812C185.452,123.554,184.731,123.044,183.838,123.044Zm-1.614,0h-.61c-.3,0-.538-.167-.538-.381V121.9c0-.213.237-.381.538-.381h.61ZM184.376,125c0,.213-.237.381-.538.381H183.3v-1.573h.538c.3,0,.538.167.538.381Z" transform="translate(-173.544 -115.696)"/><path class="b" d="M258.076,123.044h-.538v-1.522h.538c.3,0,.538.167.538.381,0,.5,1.076.5,1.076,0,0-.632-.721-1.142-1.614-1.142h-.538v-.381c0-.251-.269-.381-.538-.381v6.9c.269,0,.538-.129.538-.381v-.381h.538c.893,0,1.614-.51,1.614-1.142v-.812C259.69,123.554,258.969,123.044,258.076,123.044Zm.538,1.953c0,.213-.237.381-.538.381h-.538v-1.573h.538c.3,0,.538.167.538.381Z" transform="translate(-247.782 -115.696)"/></g><g transform="translate(-172.182 457.924)"><path class="p" d="M9.218,0A9.214,9.214,0,0,0,0,9.146a9.275,9.275,0,0,0,9.218,9.218A9.182,9.182,0,0,0,9.218,0Z" transform="translate(0 0)"/><path class="b" d="M266.146,9.146A9.214,9.214,0,0,1,257,18.364V0A9.152,9.152,0,0,1,266.146,9.146Z" transform="translate(-247.782 0)"/><path class="o" d="M67.066,60a7.03,7.03,0,1,0,6.994,6.994A7.069,7.069,0,0,0,67.066,60Z" transform="translate(-57.848 -57.848)"/><path class="q" d="M263.994,66.994A7.069,7.069,0,0,1,257,74.06V60A7.008,7.008,0,0,1,263.994,66.994Z" transform="translate(-247.782 -57.848)"/><path class="p" d="M183.838,124.3H183.3v-2.152h.538a.533.533,0,0,1,.538.538.538.538,0,0,0,1.076,0,1.612,1.612,0,0,0-1.614-1.614H183.3v-.538a.538.538,0,1,0-1.076,0v.538h-.61A1.612,1.612,0,0,0,180,122.69v1.076a1.612,1.612,0,0,0,1.614,1.614h.61V127.6h-.61a.533.533,0,0,1-.538-.538.538.538,0,0,0-1.076,0,1.612,1.612,0,0,0,1.614,1.614h.61v.538a.538.538,0,1,0,1.076,0v-.538h.538a1.612,1.612,0,0,0,1.614-1.614v-1.148A1.612,1.612,0,0,0,183.838,124.3Zm-1.614,0h-.61a.533.533,0,0,1-.538-.538V122.69a.533.533,0,0,1,.538-.538h.61Zm2.152,2.762a.533.533,0,0,1-.538.538H183.3V125.38h.538a.533.533,0,0,1,.538.538Z" transform="translate(-173.544 -115.696)"/><path class="b" d="M258.076,124.3h-.538v-2.152h.538a.533.533,0,0,1,.538.538.538.538,0,0,0,1.076,0,1.612,1.612,0,0,0-1.614-1.614h-.538v-.538A.519.519,0,0,0,257,120v9.756a.519.519,0,0,0,.538-.538v-.538h.538a1.612,1.612,0,0,0,1.614-1.614v-1.148A1.612,1.612,0,0,0,258.076,124.3Zm.538,2.762a.533.533,0,0,1-.538.538h-.538V125.38h.538a.533.533,0,0,1,.538.538Z" transform="translate(-247.782 -115.696)"/></g><g transform="translate(297.698 -56.291)"><path class="h" d="M857.3,467.289c0,2-4.482,3.483-4.923,5.411-.437,1.912-147.083,2.586-147.52.674a28.126,28.126,0,0,1-.69-6.084c0-2,3.012-3.526,3.453-5.455.437-1.912-1.78-4.659-.937-6.485.812-1.76.708-4.465,1.871-6.131,1.1-1.581,3.859-2.2,5.257-3.683,1.322-1.4,3.688-1.793,5.255-3.1,1.484-1.234,6.826-7.664,37.149,23.152l22.274,5.477,27.021-5.477,12.415-15.29c15.985-14.822,22.512-10.051,24-8.817,1.567,1.3,4.151,1.7,5.473,3.1,1.4,1.483,1.593,4.139,2.7,5.72,1.163,1.665,1.126,3.972,1.938,5.732.842,1.826,3.091,3.207,3.528,5.119C856,463.081,857.3,465.29,857.3,467.289Z" transform="translate(-1271 107.776)"/><g transform="translate(-779.961 1565.301)"><path class="r" d="M924.9-1015.07H902.665s-2.686-.8-2.917-1.445c-6.263,1-16.335-.441-16.335-.441L878.6-1018.7l-11.453-7.835s1.9-4.429,9.671.633c6.056.271,6.6,2.531,6.6,2.531s15.185-.994,19.7,0a12.335,12.335,0,0,0,4.736,3.032l8.732.674Z" transform="translate(-50.463 -17.802)"/><path class="r" d="M966.212-1029.7s-5.84-4.867-10.986-4.8c.487-1.182-3.963-2.92-3.963-2.92a3.879,3.879,0,0,0-3.824.417c-2.294,1.182,4.38,4.8,4.38,4.8l1.182.626s3.755-.417,6.049,1.877C959.259-1029.63,966.212-1029.7,966.212-1029.7Z" transform="translate(-126.053 -12.429)"/><path class="r" d="M960.8-1052.814s-5.293.249-5.134,2.781c-.222.981-9.287-7-9.287-7s1.582-5.19,7.089-.6S960.8-1052.814,960.8-1052.814Z" transform="translate(-120.385)"/><path class="r" d="M924.878-1048.232a13.508,13.508,0,0,1-4.552-1.607c-1.412-1.071-6.159-4.869-6.159-4.869l-1.972-1.68a3.4,3.4,0,0,0-3.992,0c-1.972,1.509,2.678,4.017,2.678,4.017l1.315.682a10.024,10.024,0,0,1,6.245,2.8C918.439-1048.844,924.878-1048.232,924.878-1048.232Z" transform="translate(-67.62 -1.412)"/><g transform="translate(802.342 -1071.495)"><path class="i" d="M58.6,159.9c0,5.66-5.568,5.336-12.481,5.336s-12.481.278-12.481-5.336c0-5.66,5.568-15.079,12.481-15.079C53.034,144.866,58.6,154.285,58.6,159.9Z" transform="translate(0 -136.422)"/><path class="j" d="M248.84,145.62c6.913,0,12.481,9.418,12.481,15.079s-5.568,5.336-12.481,5.336" transform="translate(-202.719 -137.175)"/><path class="i" d="M144.04,2.6c0-2.737,2.737-2.6,6.078-2.6S156.2-.138,156.2,2.6s-2.737,7.331-6.078,7.331S144.04,5.336,144.04,2.6Z" transform="translate(-103.997 0)"/><path class="j" d="M248.84,0c3.341,0,6.078-.139,6.078,2.6S252.181,9.93,248.84,9.93" transform="translate(-202.719 0)"/><path class="k" d="M167.511,137.087a.832.832,0,0,1-.835.835h-9a.832.832,0,0,1-.835-.835v-.232a.832.832,0,0,1,.835-.835h9.047a.832.832,0,0,1,.835.835v.232Z" transform="translate(-116.055 -128.132)"/><path class="l" d="M168.84,136.82h9.186a.832.832,0,0,1,.835.835v.232a.915.915,0,0,1-.928.835" transform="translate(-127.359 -128.886)"/><circle class="k" cx="5.568" cy="5.568" r="5.568" transform="translate(40.553 14.105)"/><path class="l" d="M180.84,244.655a5.577,5.577,0,0,1,7.887,7.887" transform="translate(-138.663 -228.926)"/><path class="m" d="M210.7,273.635v-1.16a3.951,3.951,0,0,1-1.856-.464l.278-1.253a3.945,3.945,0,0,0,1.763.464c.6,0,1.021-.232,1.021-.65s-.325-.65-1.16-.928c-1.16-.371-1.9-.928-1.9-1.949,0-.928.418-1.67,1.809-1.9v-.974h.928v.928a3.046,3.046,0,0,1,1.577.371l-.278,1.206a3.133,3.133,0,0,0-1.531-.371c-.7,0-.928.278-.928.6,0,.371.371.557,1.3.928,1.253.464,1.763,1.021,1.763,2s-.51,1.763-1.9,2v1.16Z" transform="translate(-165.039 -249.462)"/><g transform="translate(46.121 15.358)"><path class="n" d="M248.84,264.82v2.134h.232a3.133,3.133,0,0,1,1.531.371l.278-1.206a2.753,2.753,0,0,0-1.577-.371v-.928Z" transform="translate(-248.84 -264.82)"/><path class="n" d="M249.443,323.452c-.232-.093-.464-.186-.6-.232V324.8c.464.232.742.464.742.789,0,.371-.278.557-.742.65v2.413h.464v-1.206c1.392-.232,1.9-1.021,1.9-2S250.7,323.916,249.443,323.452Z" transform="translate(-248.84 -319.833)"/></g></g><path class="r" d="M877.265-1023.057s0-4.43-1.528-5.957-5.8-7.79-9.318-9.624-12.831-4.583-21.386-3.819c-.028.013-6.405,2.07-6.405,2.07l-6.717-.692s-3.8-2.712-6.146-2.892a20.18,20.18,0,0,0-8.225,1.514c-1.446.836-.633,4.18-.633,4.18s8.677,2.169,10.395,3.977,7.683,1.627,7.683,1.627a24.609,24.609,0,0,0,4.429,3.658,20.9,20.9,0,0,1,6.146.68l9.31,4.429,6.779,4.61,15.615,16.323Z" transform="translate(19.501 -8.865)"/></g></g><g transform="translate(-1129.934 1091.84)"><path class="r" d="M966.334-1180.737a37.164,37.164,0,0,1-15.9,10.381c-10.233,3.411-31.75-6.035-31.75-6.035L905.827-1159.6s2.624,11.808,0,16.531,5.51,0,5.51,0,4.322-8.119,2.362-14.169a72.93,72.93,0,0,1,5.663-5.89s4.308-.145,3.783,3.528-4.461,6.56-4.461,6.56l-4.43,2.566-1.889,7.843s-.632,3.145,1.333,4.024,4.985-5.556,4.985-5.556,2.3-.957,5.021-4.553c3.492.653,10.9.892,14.36,0s9.435-3.169,11.824-6.155,15.765-6.927,15.765-6.927Z" transform="translate(61.775 500)"/><path class="r" d="M900.962-1160.12l-16.537,3.95-6.064,8.177s-1.1,8.452-2.113,10.473,4.685-1.01,4.685-1.01a7.675,7.675,0,0,0,2.389-6.523,39.911,39.911,0,0,1,5.237-5.328l4.961-.459Z" transform="translate(78.216 485.064)"/><path class="r" d="M887.517-1158.282l-5.42-1.838-5.6,3.032s-5.42,6.615-7.35,7.717,1.654,1.837,1.654,1.837a2.893,2.893,0,0,0,2.756-.551c1.286-1.1,6.523-8.177,6.523-8.177Z" transform="translate(82.474 485.064)"/><path class="r" d="M872.14-1153.6s-6.155,1.746-8.636,1.01-.551,3.307,1.011,3.583a21.918,21.918,0,0,0,4.41,0l3.859-4.594Z" transform="translate(86 481.388)"/></g><g transform="translate(-221.379 511.759) rotate(-31)"><path class="o" d="M9.218,0C4.171,0,0,3.462,0,7.724s4.171,7.785,9.218,7.785,9.146-3.523,9.146-7.785S14.264,0,9.218,0Z" transform="translate(0.515 1.143)"/><path class="o" d="M266.146,7.724c0,4.262-4.1,7.785-9.146,7.785V0C262.046,0,266.146,3.462,266.146,7.724Z" transform="translate(-247.267 1.143)"/><path class="p" d="M9.218,0C4.171,0,0,3.462,0,7.724s4.171,7.785,9.218,7.785,9.146-3.523,9.146-7.785S14.264,0,9.218,0Z" transform="translate(0 0)"/><path class="b" d="M266.146,7.724c0,4.262-4.1,7.785-9.146,7.785V0C262.046,0,266.146,3.462,266.146,7.724Z" transform="translate(-247.782 0)"/><path class="o" d="M67.066,60C63.214,60,60,62.5,60,65.574S63.214,71.2,67.066,71.2s6.994-2.561,6.994-5.631S70.918,60,67.066,60Z" transform="translate(-57.848 -57.848)"/><path class="q" d="M263.994,65.574c0,3.07-3.142,5.631-6.994,5.631V60C260.852,60,263.994,62.5,263.994,65.574Z" transform="translate(-247.782 -57.848)"/><path class="p" d="M183.838,123.044H183.3v-1.522h.538c.3,0,.538.167.538.381,0,.5,1.076.5,1.076,0,0-.632-.721-1.142-1.614-1.142H183.3v-.381c0-.251-.269-.381-.538-.381s-.538.129-.538.381v.381h-.61c-.893,0-1.614.51-1.614,1.142v.761c0,.632.721,1.142,1.614,1.142h.61v1.573h-.61c-.3,0-.538-.167-.538-.381,0-.5-1.076-.5-1.076,0,0,.632.721,1.142,1.614,1.142h.61v.381c0,.251.269.381.538.381s.538-.129.538-.381v-.381h.538c.893,0,1.614-.51,1.614-1.142v-.812C185.452,123.554,184.731,123.044,183.838,123.044Zm-1.614,0h-.61c-.3,0-.538-.167-.538-.381V121.9c0-.213.237-.381.538-.381h.61ZM184.376,125c0,.213-.237.381-.538.381H183.3v-1.573h.538c.3,0,.538.167.538.381Z" transform="translate(-173.544 -115.696)"/><path class="b" d="M258.076,123.044h-.538v-1.522h.538c.3,0,.538.167.538.381,0,.5,1.076.5,1.076,0,0-.632-.721-1.142-1.614-1.142h-.538v-.381c0-.251-.269-.381-.538-.381v6.9c.269,0,.538-.129.538-.381v-.381h.538c.893,0,1.614-.51,1.614-1.142v-.812C259.69,123.554,258.969,123.044,258.076,123.044Zm.538,1.953c0,.213-.237.381-.538.381h-.538v-1.573h.538c.3,0,.538.167.538.381Z" transform="translate(-247.782 -115.696)"/></g><g transform="translate(315.079 317.515)"><path class="i" d="M58.6,159.9c0,5.66-5.568,5.336-12.481,5.336s-12.481.278-12.481-5.336c0-5.66,5.568-15.079,12.481-15.079C53.034,144.866,58.6,154.285,58.6,159.9Z" transform="translate(0 -136.422)"/><path class="j" d="M248.84,145.62c6.913,0,12.481,9.418,12.481,15.079s-5.568,5.336-12.481,5.336" transform="translate(-202.719 -137.175)"/><path class="i" d="M144.04,2.6c0-2.737,2.737-2.6,6.078-2.6S156.2-.138,156.2,2.6s-2.737,7.331-6.078,7.331S144.04,5.336,144.04,2.6Z" transform="translate(-103.997 0)"/><path class="j" d="M248.84,0c3.341,0,6.078-.139,6.078,2.6S252.181,9.93,248.84,9.93" transform="translate(-202.719 0)"/><path class="k" d="M167.511,137.087a.832.832,0,0,1-.835.835h-9a.832.832,0,0,1-.835-.835v-.232a.832.832,0,0,1,.835-.835h9.047a.832.832,0,0,1,.835.835v.232Z" transform="translate(-116.055 -128.132)"/><path class="l" d="M168.84,136.82h9.186a.832.832,0,0,1,.835.835v.232a.915.915,0,0,1-.928.835" transform="translate(-127.359 -128.886)"/><circle class="k" cx="5.568" cy="5.568" r="5.568" transform="translate(40.553 14.105)"/><path class="l" d="M180.84,244.655a5.577,5.577,0,0,1,7.887,7.887" transform="translate(-138.663 -228.926)"/><path class="m" d="M210.7,273.635v-1.16a3.951,3.951,0,0,1-1.856-.464l.278-1.253a3.945,3.945,0,0,0,1.763.464c.6,0,1.021-.232,1.021-.65s-.325-.65-1.16-.928c-1.16-.371-1.9-.928-1.9-1.949,0-.928.418-1.67,1.809-1.9v-.974h.928v.928a3.046,3.046,0,0,1,1.577.371l-.278,1.206a3.133,3.133,0,0,0-1.531-.371c-.7,0-.928.278-.928.6,0,.371.371.557,1.3.928,1.253.464,1.763,1.021,1.763,2s-.51,1.763-1.9,2v1.16Z" transform="translate(-165.039 -249.462)"/><g transform="translate(46.121 15.358)"><path class="n" d="M248.84,264.82v2.134h.232a3.133,3.133,0,0,1,1.531.371l.278-1.206a2.753,2.753,0,0,0-1.577-.371v-.928Z" transform="translate(-248.84 -264.82)"/><path class="n" d="M249.443,323.452c-.232-.093-.464-.186-.6-.232V324.8c.464.232.742.464.742.789,0,.371-.278.557-.742.65v2.413h.464v-1.206c1.392-.232,1.9-1.021,1.9-2S250.7,323.916,249.443,323.452Z" transform="translate(-248.84 -319.833)"/></g></g><g transform="matrix(-0.966, 0.259, -0.259, -0.966, 2606.95, -1144.898)"><path class="s" d="M2730.579-907.729s5.9-3.537,10.4-3.234a24.239,24.239,0,0,0,7.167-.407s3.98-1.62,5.642-1.391a1.883,1.883,0,0,1,1.264,0h3.092s.316-.123.642,1a1.425,1.425,0,0,1-.642,1.693,10.221,10.221,0,0,0-3.584.859,13.519,13.519,0,0,1-4.657.76c-1.662.63-.151.516-.151.86s5.105-.4,6.306-.86a4.4,4.4,0,0,1,2.155-.286l2.009-.326,1.51-.047s.206.486.619,1.542c.172.307.044,2-.582,2.172-3.037-.057-3.766.669-3.766.669a26.7,26.7,0,0,1-6.074.688h-1.2l.63.745h3.037l3.61-.745h5.387a3.048,3.048,0,0,1,.57,1.6c.1.3.252,1.934-.57,2.129-4.011.229-3.954.458-3.954.458l-8.71.63.63.917,4.7-.291s.24-.172,2.474,0a21.61,21.61,0,0,0,4.981-.309c1.215-.192,1.419.1,1.722,1.157a1.761,1.761,0,0,1-.26,2.157c-2.063.516-5.825,1.315-5.825,1.315a34.919,34.919,0,0,1-9.826,3.557c-1.333.237-4.207-.509-5.364-.44-.889.053-2.094.42-8.075-.785l-4.928-.286s-14.417,3.224-24.5,6.375l4.279-15.97,12.086.146Z" transform="translate(23 24)"/><path class="s" d="M2747.062-834.5h0s-3.078.357-4.915.4c-3.352.074-8.941,1.39-12.219,1.241a31.242,31.242,0,0,0-4.47,0l5.106-1.639,4.053-1.017h2.247l3.591.181,2.608.261Z" transform="translate(17.682 -32.583)"/></g></g></svg>