<svg xmlns="http://www.w3.org/2000/svg" xmlns:xlink="http://www.w3.org/1999/xlink" width="13" height="13" viewBox="0 0 13 13"><defs><style>.a{clip-path:url(#a);}</style><clipPath id="a"><rect width="13" height="13" transform="translate(371 353)"/></clipPath></defs><g class="a" transform="translate(-371 -353)"><g transform="translate(371 353)"><path d="M11.1,8.4a6.475,6.475,0,0,0-2.47-1.549,3.758,3.758,0,1,0-4.252,0A6.51,6.51,0,0,0,0,13H1.016a5.484,5.484,0,0,1,10.969,0H13A6.458,6.458,0,0,0,11.1,8.4ZM6.5,6.5A2.742,2.742,0,1,1,9.242,3.758,2.745,2.745,0,0,1,6.5,6.5Z"/></g></g></svg>