<svg xmlns="http://www.w3.org/2000/svg" xmlns:xlink="http://www.w3.org/1999/xlink" width="81" height="81" viewBox="0 0 81 81"><defs><style>.a,.c{fill:#fff;}.a{stroke:#707070;}.b{clip-path:url(#a);}</style><clipPath id="a"><rect class="a" width="81" height="81" transform="translate(1088 377)"/></clipPath></defs><g class="b" transform="translate(-1088 -377)"><g transform="translate(1088 377)"><path class="c" d="M79.811,21.558a3.888,3.888,0,0,1-3.884-3.884,1.189,1.189,0,0,0-2.378,0,3.888,3.888,0,0,1-3.884,3.884,1.189,1.189,0,1,0,0,2.378,3.888,3.888,0,0,1,3.884,3.884,1.189,1.189,0,0,0,2.378,0,3.888,3.888,0,0,1,3.884-3.884,1.189,1.189,0,1,0,0-2.378Zm-5.072,2.594a6.324,6.324,0,0,0-1.405-1.405,6.321,6.321,0,0,0,1.405-1.405,6.324,6.324,0,0,0,1.405,1.405A6.324,6.324,0,0,0,74.739,24.152Z"/><path class="c" d="M11.334,21.558A3.888,3.888,0,0,1,7.45,17.674a1.189,1.189,0,1,0-2.378,0,3.888,3.888,0,0,1-3.884,3.884,1.189,1.189,0,1,0,0,2.378,3.888,3.888,0,0,1,3.884,3.884,1.189,1.189,0,0,0,2.378,0,3.888,3.888,0,0,1,3.884-3.884,1.189,1.189,0,0,0,0-2.378ZM6.261,24.152a6.321,6.321,0,0,0-1.405-1.405,6.318,6.318,0,0,0,1.405-1.405,6.321,6.321,0,0,0,1.405,1.405A6.328,6.328,0,0,0,6.261,24.152Z"/><path class="c" d="M46.84,6.34a5.157,5.157,0,0,1-5.152-5.152,1.189,1.189,0,1,0-2.378,0,5.158,5.158,0,0,1-5.152,5.152,1.189,1.189,0,0,0,0,2.378,5.158,5.158,0,0,1,5.152,5.152,1.189,1.189,0,1,0,2.378,0,5.158,5.158,0,0,1,5.152-5.152,1.189,1.189,0,1,0,0-2.378ZM40.5,9.813a7.6,7.6,0,0,0-2.284-2.283A7.6,7.6,0,0,0,40.5,5.246a7.6,7.6,0,0,0,2.283,2.283A7.6,7.6,0,0,0,40.5,9.813Z"/><path class="c" d="M65.252,40.1,60.627,27a2.461,2.461,0,0,0-2.317-1.639H22.373A2.461,2.461,0,0,0,20.056,27L15.431,40.1a1.2,1.2,0,0,0,1.121,1.585H64.131A1.189,1.189,0,0,0,65.252,40.1Zm-47.019-.793L22.3,27.792a.082.082,0,0,1,.075-.053H58.31a.082.082,0,0,1,.075.053L62.45,39.311Z"/><path class="c" d="M63.167,55.8c-4.222,0-7.529,2.193-7.529,4.993s3.307,4.993,7.529,4.993S70.7,63.589,70.7,60.79,67.389,55.8,63.167,55.8Zm0,7.609c-2.949,0-5.152-1.381-5.152-2.615s2.2-2.615,5.152-2.615,5.152,1.381,5.152,2.615S66.116,63.405,63.167,63.405Z"/><path class="c" d="M17.516,55.8c-4.222,0-7.529,2.193-7.529,4.993s3.307,4.993,7.529,4.993,7.529-2.193,7.529-4.993S21.738,55.8,17.516,55.8Zm0,7.609c-2.948,0-5.152-1.381-5.152-2.615s2.2-2.615,5.152-2.615,5.152,1.381,5.152,2.615S20.464,63.405,17.516,63.405Z"/><path class="c" d="M78.384,38.043h-6.34a1.189,1.189,0,0,0-1.153.9l-.835,3.34L64.215,25.735a6.271,6.271,0,0,0-5.9-4.177H22.373a6.271,6.271,0,0,0-5.9,4.178L10.627,42.284l-.835-3.341a1.189,1.189,0,0,0-1.153-.9H2.3a1.189,1.189,0,0,0-1.189,1.189V44.3A1.189,1.189,0,0,0,2.3,45.493H8.865L4.812,51.167a6.227,6.227,0,0,0-1.166,3.639v14.86A6.256,6.256,0,0,0,6.184,74.7c0,.014,0,.028,0,.042v3.8A2.46,2.46,0,0,0,8.639,81h7.609A2.46,2.46,0,0,0,18.7,78.543V75.928H61.978v2.615A2.46,2.46,0,0,0,64.435,81h7.609A2.46,2.46,0,0,0,74.5,78.543v-3.8c0-.014,0-.028,0-.042a6.256,6.256,0,0,0,2.538-5.031V54.807a6.226,6.226,0,0,0-1.166-3.639l-4.053-5.674h6.567A1.189,1.189,0,0,0,79.573,44.3V39.232A1.188,1.188,0,0,0,78.384,38.043Zm-74.9,5.072V40.421H7.711l.674,2.695Zm12.84,35.428a.079.079,0,0,1-.079.079H8.639a.079.079,0,0,1-.079-.079V75.928h7.767v2.615Zm55.8,0a.079.079,0,0,1-.079.079H64.435a.079.079,0,0,1-.079-.079V75.928h7.767ZM70.776,73.55H9.907a3.89,3.89,0,0,1-3.7-2.695H74.472A3.89,3.89,0,0,1,70.776,73.55ZM50.565,60.71v2.695H30.117V60.71ZM30.3,58.333A3.89,3.89,0,0,1,34,55.638H46.682a3.89,3.89,0,0,1,3.7,2.695Zm20.261,7.45v2.695H30.117V65.783ZM73.936,52.549a3.862,3.862,0,0,1,.723,2.257V68.477H52.943V59.521a6.268,6.268,0,0,0-6.261-6.261H34a6.268,6.268,0,0,0-6.261,6.261v8.956H6.023V54.807a3.862,3.862,0,0,1,.723-2.257l5.04-7.056H55.558a1.189,1.189,0,0,0,0-2.378h-42.7L18.71,26.526a3.89,3.89,0,0,1,3.662-2.591H58.31a3.89,3.89,0,0,1,3.662,2.591l5.855,16.589h-7.2a1.189,1.189,0,1,0,0,2.378H68.9ZM77.2,43.115H72.3l.674-2.695H77.2Z"/><path class="c" d="M21.32,51.992H13.711a1.189,1.189,0,0,0,0,2.378H21.32a1.189,1.189,0,0,0,0-2.378Z"/><path class="c" d="M66.972,51.992H59.363a1.189,1.189,0,0,0,0,2.378h7.609a1.189,1.189,0,0,0,0-2.378Z"/></g></g></svg>