<svg xmlns="http://www.w3.org/2000/svg" xmlns:xlink="http://www.w3.org/1999/xlink" width="81" height="81" viewBox="0 0 81 81"><defs><style>.a{fill:#ffffff;stroke:#ffffff;}.b{clip-path:url(#a);}.c{fill:#ffffff;}</style><clipPath id="a"><rect class="a" width="81" height="81" transform="translate(920 377)"/></clipPath></defs><g class="b" transform="translate(-920 -377)"><g transform="translate(920 376.997)"><path class="c" d="M54,.518a2.025,2.025,0,0,0-2.731.04L24.942,26.189a2.025,2.025,0,0,0,1.382,3.51H27v2.7H16.2a2.7,2.7,0,0,0-2.7,2.7v5.4H4.05A4.05,4.05,0,0,0,0,44.548v21.6A4.05,4.05,0,0,0,4.05,70.2H13.5v6.75A4.05,4.05,0,0,0,17.549,81h8.1a4.05,4.05,0,0,0,4.05-4.05V70.2h9.45a4.05,4.05,0,0,0,3.8-2.7H75.6a2.7,2.7,0,0,0,2.7-2.7V29.7h.675a2.025,2.025,0,0,0,1.4-3.491ZM52.648,2.97,77.316,27H59.4V18.9a1.35,1.35,0,0,0-.4-.954l-5.4-5.4a1.35,1.35,0,0,0-1.909,0l-5.4,5.4a1.35,1.35,0,0,0-.4.954V27H27.98ZM48.6,19.453l4.05-4.05,4.05,4.05V35.1H48.6ZM16.2,35.1H27v5.4H16.2ZM27,76.947a1.35,1.35,0,0,1-1.35,1.35h-8.1a1.35,1.35,0,0,1-1.35-1.35V70.2h2.7v4.05a1.35,1.35,0,0,0,2.7,0V70.2H27Zm12.15-9.45H4.05a1.35,1.35,0,0,1-1.35-1.35v-21.6A1.35,1.35,0,0,1,4.05,43.2h35.1a1.35,1.35,0,0,1,1.35,1.35v21.6A1.35,1.35,0,0,1,39.148,67.5ZM40.5,40.747a4.005,4.005,0,0,0-1.35-.248H35.1V35.1h5.4ZM56.7,64.8H48.6V48.6h8.1Zm18.9,0H59.4V47.923A2.025,2.025,0,0,0,57.373,45.9h-9.45A2.025,2.025,0,0,0,45.9,47.923V64.8H43.2V33.749a1.35,1.35,0,0,0-1.35-1.35h-8.1a1.35,1.35,0,0,0-1.35,1.35V40.5H29.7V29.7H45.9v6.75a1.35,1.35,0,0,0,1.35,1.35h10.8a1.35,1.35,0,0,0,1.35-1.35V29.7H75.6Z"/><path class="c" d="M54,24.3H51.3a1.35,1.35,0,0,0,0,2.7H54a1.35,1.35,0,1,0,0-2.7Z"/><path class="c" d="M53.485,57.94a1.351,1.351,0,0,0,.513.108,1.336,1.336,0,0,0,1.35-1.35,1.652,1.652,0,0,0-.027-.256.809.809,0,0,0-.081-.256,1.023,1.023,0,0,0-.121-.243l-.162-.2a1.392,1.392,0,0,0-.445-.283,1.35,1.35,0,0,0-1.026,0,1.392,1.392,0,0,0-.445.283l-.162.2a1.023,1.023,0,0,0-.121.243.809.809,0,0,0-.081.256,1.652,1.652,0,0,0-.027.256,1.42,1.42,0,0,0,.391.958A1.558,1.558,0,0,0,53.485,57.94Z"/><path class="c" d="M63.448,60.748h8.1A1.35,1.35,0,0,0,72.9,59.4V47.248a1.35,1.35,0,0,0-1.35-1.35h-8.1a1.35,1.35,0,0,0-1.35,1.35V59.4A1.35,1.35,0,0,0,63.448,60.748ZM64.8,48.6h5.4v9.45H64.8Z"/><path class="c" d="M63.448,43.2h8.1a1.35,1.35,0,0,0,1.35-1.35v-8.1a1.35,1.35,0,0,0-1.35-1.35h-8.1a1.35,1.35,0,0,0-1.35,1.35v8.1A1.35,1.35,0,0,0,63.448,43.2Zm1.35-8.1h5.4v5.4H64.8Z"/><path class="c" d="M27,49.948a1.35,1.35,0,1,0,0-2.7h-4.05V45.9a1.35,1.35,0,0,0-2.7,0v1.35H18.9a4.05,4.05,0,0,0-4.05,4.05v1.35A4.05,4.05,0,0,0,18.9,56.7h1.35v4.05H16.2a1.35,1.35,0,1,0,0,2.7h4.05V64.8a1.35,1.35,0,0,0,2.7,0v-1.35H24.3a4.05,4.05,0,0,0,4.05-4.05v-1.35A4.05,4.05,0,0,0,24.3,54h-1.35v-4.05ZM24.3,56.7a1.35,1.35,0,0,1,1.35,1.35V59.4a1.35,1.35,0,0,1-1.35,1.35h-1.35V56.7ZM20.249,54H18.9a1.35,1.35,0,0,1-1.35-1.35V51.3a1.35,1.35,0,0,1,1.35-1.35h1.35Z"/></g></g></svg>