<svg xmlns="http://www.w3.org/2000/svg" xmlns:xlink="http://www.w3.org/1999/xlink" width="18" height="18" viewBox="0 0 18 18"><defs><style>.a{fill:#989898;}.b{clip-path:url(#a);}</style><clipPath id="a"><rect class="a" width="18" height="18" transform="translate(11 11)"/></clipPath></defs><g class="b" transform="translate(-11 -11)"><g transform="translate(11 11)"><path class="a" d="M16.793,4.482a8.962,8.962,0,0,0-3.275-3.275A8.8,8.8,0,0,0,9,0,8.8,8.8,0,0,0,4.483,1.207,8.96,8.96,0,0,0,1.207,4.482,8.8,8.8,0,0,0,0,9a8.805,8.805,0,0,0,1.207,4.518,8.962,8.962,0,0,0,3.275,3.275A8.8,8.8,0,0,0,9,18a8.8,8.8,0,0,0,4.518-1.207,8.96,8.96,0,0,0,3.275-3.275A8.805,8.805,0,0,0,18,9,8.806,8.806,0,0,0,16.793,4.482ZM14.52,12.2a6.358,6.358,0,0,1-2.32,2.32,6.231,6.231,0,0,1-3.2.855,6.232,6.232,0,0,1-3.2-.855,6.358,6.358,0,0,1-2.32-2.32A6.23,6.23,0,0,1,2.625,9a6.231,6.231,0,0,1,.856-3.2A6.354,6.354,0,0,1,5.8,3.48,6.231,6.231,0,0,1,9,2.625a6.231,6.231,0,0,1,3.2.855A6.355,6.355,0,0,1,14.52,5.8,6.231,6.231,0,0,1,15.375,9,6.231,6.231,0,0,1,14.52,12.2Z"/><path class="a" d="M9,6A3,3,0,0,0,6,9a3,3,0,0,0,3,3,3,3,0,0,0,3-3A3,3,0,0,0,9,6Z"/></g></g></svg>