<svg xmlns="http://www.w3.org/2000/svg" xmlns:xlink="http://www.w3.org/1999/xlink" width="18" height="18" viewBox="0 0 18 18"><defs><style>.a{fill:#989898;}.b{clip-path:url(#a);}</style><clipPath id="a"><rect class="a" width="18" height="18" transform="translate(11 11)"/></clipPath></defs><g class="b" transform="translate(-11 -11)"><g transform="translate(11 11)"><path class="a" d="M14.072,6.173A.3.3,0,0,0,13.8,6H10.245L13.754.461A.3.3,0,0,0,13.5,0H8.7a.3.3,0,0,0-.268.166l-4.5,9A.3.3,0,0,0,4.2,9.6H7.285L3.924,17.584a.3.3,0,0,0,.506.31l9.6-11.4A.3.3,0,0,0,14.072,6.173Z"/></g></g></svg>