<svg xmlns="http://www.w3.org/2000/svg" xmlns:xlink="http://www.w3.org/1999/xlink" width="18" height="18" viewBox="0 0 18 18"><defs><style>.a{clip-path:url(#a);}.b{fill:#989898;}</style><clipPath id="a"><rect width="18" height="18" transform="translate(10.85 11)"/></clipPath></defs><g class="a" transform="translate(-10.85 -11)"><g transform="translate(10.85 11)"><path class="b" d="M13.554,10.958a3.63,3.63,0,0,0-.316-.768,2.6,2.6,0,0,0-.532-.638,6.356,6.356,0,0,0-.623-.5,6.071,6.071,0,0,0-.758-.427q-.482-.236-.763-.352t-.814-.316q-.472-.181-.7-.276t-.608-.271A3.542,3.542,0,0,1,7.874,7.1a4.42,4.42,0,0,1-.4-.331,1.131,1.131,0,0,1-.3-.417,1.351,1.351,0,0,1,.517-1.6,2.612,2.612,0,0,1,1.557-.432,3.348,3.348,0,0,1,.859.116,4.492,4.492,0,0,1,.748.261,5.2,5.2,0,0,1,.588.321q.276.176.392.266c.077.06.126.1.146.121a.32.32,0,0,0,.271.07.274.274,0,0,0,.231-.161L13.3,3.847a.291.291,0,0,0-.05-.382c-.04-.04-.09-.087-.151-.141s-.191-.151-.392-.291a4.848,4.848,0,0,0-.638-.377A6.45,6.45,0,0,0,11.2,2.32a5.572,5.572,0,0,0-1.11-.231V.321A.309.309,0,0,0,9.768,0H8.412a.309.309,0,0,0-.226.1.309.309,0,0,0-.1.226V2.129A4.6,4.6,0,0,0,5.529,3.475a3.435,3.435,0,0,0-.984,2.431,3.488,3.488,0,0,0,.085.783,4.011,4.011,0,0,0,.211.668A2.458,2.458,0,0,0,5.2,7.94a6.24,6.24,0,0,0,.437.492,3.547,3.547,0,0,0,.537.427q.332.221.568.357t.628.311q.392.176.618.266t.618.251q.542.211.8.327t.663.321a2.752,2.752,0,0,1,.588.377,1.888,1.888,0,0,1,.337.422,1.018,1.018,0,0,1,.151.532,1.406,1.406,0,0,1-.618,1.225A2.435,2.435,0,0,1,9.1,13.68a3.509,3.509,0,0,1-.743-.08,5.248,5.248,0,0,1-2.441-1.256l-.02-.02a.249.249,0,0,0-.241-.09.312.312,0,0,0-.231.121L4.384,13.711a.3.3,0,0,0,.02.412q.05.06.176.181a5.813,5.813,0,0,0,.467.377,6.769,6.769,0,0,0,.743.482,6.755,6.755,0,0,0,1.02.447,6.342,6.342,0,0,0,1.281.311v1.758A.326.326,0,0,0,8.412,18H9.769a.309.309,0,0,0,.321-.321V15.921a4.313,4.313,0,0,0,2.6-1.371,3.822,3.822,0,0,0,1-2.647A3.3,3.3,0,0,0,13.554,10.958Z"/></g></g></svg>