<svg width="0" height="0" class="hidden">
  <symbol xmlns="http://www.w3.org/2000/svg" viewBox="0 0 57 57" id="icon-1">
    <defs>
      <clipPath id="a">
        <path d="M0 0h57v57H0z"></path>
      </clipPath>
    </defs>
    <g opacity=".8" clip-path="url(#a)">
      <path d="M27.624 38.21a2.988 2.988 0 0 0 0 5.976 2.988 2.988 0 1 0 0-5.976zm.507-22.624c-5.239 0-7.645 3.1-7.645 5.2a2.225 2.225 0 0 0 2.328 2.212c2.1 0 1.242-2.988 5.2-2.988 1.94 0 3.493.854 3.493 2.639 0 2.1-2.173 3.3-3.454 4.385a7.1 7.1 0 0 0-2.6 5.9c0 2.018.543 2.6 2.134 2.6 1.9 0 2.289-.854 2.289-1.591 0-2.018.039-3.182 2.173-4.851 1.048-.815 4.346-3.454 4.346-7.1s-3.297-6.406-8.264-6.406z"></path>
      <path d="M28.5 0A28.485 28.485 0 0 0 0 28.5v26.273A2.227 2.227 0 0 0 2.227 57H28.5a28.5 28.5 0 0 0 0-57zm0 52.547H4.453V28.5A24.047 24.047 0 1 1 28.5 52.547z"></path>
    </g>
  </symbol>
  <symbol xmlns="http://www.w3.org/2000/svg" viewBox="0 0 57 57" id="icon-2">
    <defs>
      <clipPath id="a">
        <path d="M0 0h57v57H0z"></path>
      </clipPath>
    </defs>
    <g opacity=".8" clip-path="url(#a)">
      <path d="M49.276 29.942H27.064V7.731a1.609 1.609 0 0 0-1.616-1.616 25.442 25.442 0 1 0 25.443 25.443 1.624 1.624 0 0 0-1.615-1.616zM25.449 53.769a22.211 22.211 0 0 1-1.616-44.363v22.151a1.609 1.609 0 0 0 1.616 1.616h22.154a22.233 22.233 0 0 1-22.154 20.596z"></path>
      <path d="M56.994 25.359A25.438 25.438 0 0 0 31.552 0a1.609 1.609 0 0 0-1.616 1.616v23.826a1.609 1.609 0 0 0 1.616 1.616h23.827a1.609 1.609 0 0 0 1.616-1.616zm-23.827-1.52V3.3a22.226 22.226 0 0 1 20.536 20.539H33.167z"></path>
    </g>
  </symbol>
  <symbol xmlns="http://www.w3.org/2000/svg" viewBox="0 0 57 57" id="icon-3">
    <defs>
      <clipPath id="a">
        <path d="M0 0h57v57H0z"></path>
      </clipPath>
    </defs>
    <g opacity=".8" clip-path="url(#a)">
      <circle cx="2.227" cy="2.227" r="2.227" transform="translate(40.746 21.152)"></circle>
      <path d="M48.094 4.453H45.2V2.227a2.227 2.227 0 1 0-4.453 0v2.226H30.615V2.227a2.227 2.227 0 0 0-4.453 0v2.226H16.143V2.227a2.227 2.227 0 0 0-4.453 0v2.226H8.906A8.916 8.916 0 0 0 0 13.359v34.735A8.916 8.916 0 0 0 8.906 57h17.033a2.227 2.227 0 1 0 0-4.453H8.906a4.458 4.458 0 0 1-4.453-4.453V13.359a4.458 4.458 0 0 1 4.453-4.453h2.783v2.227a2.227 2.227 0 1 0 4.453 0V8.906h10.02v2.227a2.227 2.227 0 1 0 4.453 0V8.906h10.131v2.227a2.227 2.227 0 1 0 4.453 0V8.906h2.895a4.458 4.458 0 0 1 4.453 4.453v12.692a2.227 2.227 0 1 0 4.453 0V13.359a8.916 8.916 0 0 0-8.906-8.906z"></path>
      <path d="M43.53 30.059A13.471 13.471 0 1 0 57 43.53a13.486 13.486 0 0 0-13.47-13.471zm0 22.488a9.018 9.018 0 1 1 9.018-9.018 9.028 9.028 0 0 1-9.018 9.018z"></path>
      <path d="M46.758 41.302h-1v-2.337a2.227 2.227 0 1 0-4.453 0v4.564a2.227 2.227 0 0 0 2.227 2.227h3.229a2.227 2.227 0 0 0 0-4.453z"></path>
      <circle cx="2.227" cy="2.227" r="2.227" transform="translate(31.061 21.152)"></circle>
      <circle cx="2.227" cy="2.227" r="2.227" transform="translate(21.375 30.838)"></circle>
      <circle cx="2.227" cy="2.227" r="2.227" transform="translate(11.689 21.152)"></circle>
      <circle cx="2.227" cy="2.227" r="2.227" transform="translate(11.689 30.838)"></circle>
      <circle cx="2.227" cy="2.227" r="2.227" transform="translate(11.689 40.523)"></circle>
      <circle cx="2.227" cy="2.227" r="2.227" transform="translate(21.375 40.523)"></circle>
      <circle cx="2.227" cy="2.227" r="2.227" transform="translate(21.375 21.152)"></circle>
    </g>
  </symbol>
  <symbol xmlns="http://www.w3.org/2000/svg" viewBox="0 0 57 57" id="icon-4">
    <defs>
      <clipPath id="a">
        <path d="M0 0h57v57H0z" transform="translate(322 1403)"></path>
      </clipPath>
    </defs>
    <g transform="translate(-322 -1403)" opacity=".8" clip-path="url(#a)">
      <path d="M378.165 1411.405a2.85 2.85 0 0 0-4.031 0l-34.144 34.145-13.125-13.125a2.85 2.85 0 0 0-4.031 4.03l15.14 15.14a2.851 2.851 0 0 0 4.031 0l36.16-36.16a2.85 2.85 0 0 0 0-4.03z"></path>
    </g>
  </symbol>
  <symbol xmlns="http://www.w3.org/2000/svg" viewBox="0 0 57 57" id="icon-5">
    <defs>
      <clipPath id="a">
        <path d="M0 0h57v57H0z" transform="translate(322 1403)"></path>
      </clipPath>
    </defs>
    <g transform="translate(-322 -1403)" opacity=".8" clip-path="url(#a)">
      <path d="M356.257 1454.917c-.47.117-.949.221-1.425.309a2.292 2.292 0 0 0 .835 4.506 28.96 28.96 0 0 0 1.7-.369 2.291 2.291 0 0 0-1.107-4.447zm16.946-30.714a2.292 2.292 0 0 0 4.351-1.441 25.02 25.02 0 0 0-.6-1.631 2.291 2.291 0 1 0-4.255 1.7c.184.451.352.912.504 1.372zm-9.5 27.442c-.4.267-.821.525-1.242.767a2.292 2.292 0 1 0 2.29 3.97c.5-.288 1-.595 1.478-.913a2.291 2.291 0 0 0-2.526-3.824zm15.278-21.042a2.291 2.291 0 1 0-4.579.18c.019.483.024.974.013 1.457a2.291 2.291 0 1 0 4.581.1c.01-.576.005-1.16-.015-1.737zm-6.152 15.015a2.29 2.29 0 0 0-3.209.458c-.291.388-.6.771-.911 1.139a2.292 2.292 0 0 0 .259 3.23c.055.047.11.089.168.13a2.291 2.291 0 0 0 3.062-.389c.375-.44.74-.9 1.087-1.36a2.292 2.292 0 0 0-.456-3.208zm3.368-8.283a2.291 2.291 0 0 0-2.872 1.5 23.93 23.93 0 0 1-.479 1.379 2.291 2.291 0 0 0 4.282 1.632c.206-.54.4-1.091.569-1.64a2.292 2.292 0 0 0-1.5-2.871zm-29.937 17.912a23.661 23.661 0 0 1-5.877-1.868c-.022-.012-.042-.025-.065-.035a24.344 24.344 0 0 1-1.3-.659h-.006a24.444 24.444 0 0 1-2.28-1.425 23.911 23.911 0 0 1 .097-39.169l.082-.057a23.952 23.952 0 0 1 26.845-.215l-1.79 2.587c-.5.72-.192 1.245.68 1.166l7.776-.7a1.281 1.281 0 0 0 1.159-1.676l-2.088-7.522c-.234-.843-.832-.944-1.331-.225l-1.794 2.593a28.3 28.3 0 0 0-20.736-4.409q-1.1.19-2.17.463h-.014l-.082.023a28.255 28.255 0 0 0-15.666 10.504c-.033.039-.067.077-.1.12a25.804 25.804 0 0 0-.99 1.433c-.024.036-.043.073-.064.11a28.25 28.25 0 0 0-4.517 16.658v.059c.026.575.071 1.158.133 1.731 0 .037.012.072.018.109.064.577.144 1.155.245 1.733a28.279 28.279 0 0 0 7.975 15.336l.03.03.011.009a28.872 28.872 0 0 0 3.65 3.051 28.253 28.253 0 0 0 11.362 4.755 2.291 2.291 0 0 0 .809-4.511z"></path>
      <path d="M349.094 1413.194a1.855 1.855 0 0 0-1.855 1.854v18.471l16.893 8.732a1.854 1.854 0 0 0 1.7-3.293l-14.888-7.7v-16.21a1.854 1.854 0 0 0-1.85-1.854z"></path>
    </g>
  </symbol>
</svg>